# This file uses centimeters as units for non-parametric coordinates.

mtllib Spear.mtl
g default
v 3.173986 -0.000000 -0.005301
v 3.168686 -0.000000 -0.007496
v 3.163385 -0.000000 -0.005301
v 3.161189 -0.000000 0.000000
v 3.163385 -0.000000 0.005301
v 3.168686 -0.000000 0.007496
v 3.173986 -0.000000 0.005301
v 3.176182 -0.000000 0.000000
v 3.190714 0.112507 -0.022028
v 3.168686 0.112507 -0.031153
v 3.146657 0.112507 -0.022028
v 3.137533 0.112507 0.000000
v 3.146657 0.112507 0.022028
v 3.168686 0.112507 0.031153
v 3.190714 0.112507 0.022028
v 3.199838 0.112507 0.000000
v 3.168686 -0.000000 0.000000
v 3.181860 0.112507 -0.013175
v 3.168686 0.112507 -0.018632
v 3.155511 0.112507 -0.013175
v 3.150054 0.112507 0.000000
v 3.155511 0.112507 0.013175
v 3.168686 0.112507 0.018632
v 3.181860 0.112507 0.013175
v 3.187317 0.112507 0.000000
v 3.181860 1.456032 -0.013175
v 3.168686 1.456032 -0.018632
v 3.155511 1.456032 -0.013175
v 3.150054 1.456032 0.000000
v 3.155511 1.456032 0.013175
v 3.168686 1.456032 0.018632
v 3.181860 1.456032 0.013175
v 3.187317 1.456032 0.000000
v 3.185129 1.456032 -0.016444
v 3.168686 1.456032 -0.023255
v 3.152242 1.456032 -0.016444
v 3.145431 1.456032 0.000000
v 3.152242 1.456032 0.016444
v 3.168686 1.456032 0.023255
v 3.185129 1.456032 0.016444
v 3.191941 1.456032 0.000000
v 3.185129 1.551085 -0.016444
v 3.168686 1.551085 -0.023255
v 3.152242 1.551085 -0.016444
v 3.145431 1.551085 0.000000
v 3.152242 1.551085 0.016444
v 3.168686 1.551085 0.023255
v 3.185129 1.551085 0.016444
v 3.191941 1.551085 0.000000
v 3.181432 1.551085 -0.012746
v 3.168686 1.551085 -0.018026
v 3.155939 1.551085 -0.012746
v 3.150660 1.551085 0.000000
v 3.155939 1.551085 0.012746
v 3.168686 1.551085 0.018026
v 3.181432 1.551085 0.012746
v 3.186712 1.551085 0.000000
v 3.191617 1.900846 -0.002281
v 3.145754 1.900846 -0.002281
v 3.137641 1.872041 0.000000
v 3.145754 1.900846 0.002281
v 3.168686 1.872041 0.014090
v 3.191617 1.900846 0.002280
v 3.199731 1.872041 -0.000002
v 3.168685 2.041100 -0.006296
v 3.121984 1.900802 0.000000
v 3.168685 2.041100 0.006296
v 3.215387 1.900802 -0.000001
v 3.168686 2.146793 -0.000000
v 3.199922 1.839896 -0.003792
v 3.212793 1.839945 -0.000001
v 3.199874 1.839945 0.003788
v 3.168685 1.839945 0.018571
v 3.137497 1.839945 0.003788
v 3.124579 1.839945 0.000000
v 3.137449 1.839896 -0.003792
v 3.181452 1.810966 -0.012766
v 3.186712 1.811059 -0.000001
v 3.181432 1.811059 0.012745
v 3.168686 1.811059 0.018026
v 3.155939 1.811059 0.012746
v 3.150660 1.811059 0.000000
v 3.155920 1.810966 -0.012766
v 3.168686 1.810966 -0.018054
v 3.168686 1.872041 -0.014112
v 3.168685 1.839847 -0.018616
v 3.185129 1.503559 -0.016444
v 3.191941 1.503559 0.000000
v 3.185129 1.503559 0.016444
v 3.168686 1.503559 0.023255
v 3.152242 1.503559 0.016444
v 3.145431 1.503559 0.000000
v 3.152242 1.503559 -0.016444
v 3.168686 1.503559 -0.023255
v 3.181860 0.784269 -0.013175
v 3.187317 0.784269 0.000000
v 3.181860 0.784269 0.013175
v 3.168686 0.784269 0.018632
v 3.155511 0.784269 0.013175
v 3.150054 0.784269 0.000000
v 3.155511 0.784269 -0.013175
v 3.168686 0.784269 -0.018632
v 3.181860 1.120151 -0.013175
v 3.187317 1.120151 0.000000
v 3.181860 1.120151 0.013175
v 3.168686 1.120151 0.018632
v 3.155511 1.120151 0.013175
v 3.150054 1.120151 0.000000
v 3.155511 1.120151 -0.013175
v 3.168686 1.120151 -0.018632
vt 0.304440 0.156057
vt 0.300211 0.156642
vt 0.334912 0.075631
vt 0.350565 0.083990
vt 0.297633 0.160046
vt 0.318141 0.069833
vt 0.301621 0.166853
vt 0.305851 0.166269
vt 0.265353 0.068906
vt 0.282925 0.066428
vt 0.308429 0.162865
vt 0.248389 0.074112
vt 0.887688 0.045096
vt 0.896879 0.050402
vt 0.233758 0.290285
vt 0.233757 0.277039
vt 0.906071 0.055708
vt 0.233759 0.303532
vt 0.924454 0.066319
vt 0.933646 0.071625
vt 0.233762 0.343271
vt 0.233761 0.330024
vt 0.942837 0.076930
vt 0.233762 0.356517
vt 0.230578 0.275722
vt 0.230579 0.288969
vt 0.159836 0.288973
vt 0.159835 0.275727
vt 0.230580 0.302215
vt 0.159837 0.302220
vt 0.230582 0.328708
vt 0.230583 0.341955
vt 0.159839 0.341959
vt 0.159838 0.328713
vt 0.230583 0.355201
vt 0.159840 0.355206
vt 0.050605 0.027239
vt 0.060873 0.027238
vt 0.245405 0.683270
vt 0.235413 0.684723
vt 0.071141 0.027237
vt 0.181628 0.858563
vt 0.260146 0.708067
vt 0.250278 0.706839
vt 0.196959 0.836821
vt 0.091677 0.027236
vt 0.101945 0.027235
vt 0.151280 0.860630
vt 0.161189 0.858734
vt 0.112213 0.027235
vt 0.112233 0.220650
vt 0.135552 0.836451
vt 0.145497 0.837252
vt 0.198751 0.705247
vt 0.307845 0.158635
vt 0.303031 0.161455
vt 0.298217 0.164275
vt 0.364712 0.094703
vt 0.878496 0.039791
vt 0.300667 0.066740
vt 0.915262 0.061013
vt 0.233756 0.263792
vt 0.230577 0.262476
vt 0.233760 0.316778
vt 0.230581 0.315461
vt 0.159834 0.262481
vt 0.040337 0.027238
vt 0.159838 0.315466
vt 0.081409 0.027237
vt 0.225184 0.684390
vt 0.224531 0.705510
vt 0.223793 0.729393
vt 0.204450 0.750917
vt 0.241770 0.752070
vt 0.219903 0.855321
vt 0.145231 0.812976
vt 0.249555 0.731144
vt 0.228298 0.612801
vt 0.217154 0.601487
vt 0.190793 0.430266
vt 0.171409 0.858667
vt 0.171233 0.837532
vt 0.171033 0.813711
vt 0.189511 0.791448
vt 0.152185 0.791760
vt 0.169980 0.687728
vt 0.228146 0.534000
vt 0.247330 0.429942
vt 0.208563 0.430016
vt 0.177111 0.498760
vt 0.160645 0.603283
vt 0.199396 0.602199
vt 0.253762 0.408550
vt 0.154773 0.624834
vt 0.040325 0.220654
vt 0.214953 0.684091
vt 0.050609 0.220654
vt 0.060885 0.220723
vt 0.071153 0.220722
vt 0.081421 0.220722
vt 0.091690 0.220721
vt 0.101958 0.220720
vt 0.205071 0.682024
vt 0.188826 0.705864
vt 0.197973 0.729550
vt 0.142875 0.603565
vt 0.202050 0.408650
vt 0.156244 0.343449
vt 0.156245 0.356695
vt 0.156243 0.330202
vt 0.156242 0.316956
vt 0.156241 0.303709
vt 0.156241 0.290463
vt 0.156240 0.277217
vt 0.156239 0.263970
vt 0.433765 0.937621
vt 0.442957 0.942927
vt 0.424574 0.932315
vt 0.415382 0.927009
vt 0.406190 0.921704
vt 0.396999 0.916398
vt 0.387807 0.911092
vt 0.378616 0.905787
vt 0.159841 0.368452
vt 0.156246 0.366964
vt 0.230584 0.368448
vt 0.233763 0.367131
vt 0.122481 0.027233
vt 0.122517 0.220648
vt 0.367067 0.085687
vt 0.952029 0.082236
vt 0.452149 0.948232
vt 0.259418 0.061722
vt 0.241399 0.067949
vt 0.278191 0.058401
vt 0.297253 0.058069
vt 0.316130 0.060733
vt 0.334355 0.066329
vt 0.351475 0.074716
vt 0.231868 0.072617
vt 0.232452 0.081917
vt 0.283936 0.152428
vt 0.279854 0.153681
vt 0.288164 0.151832
vt 0.292434 0.151906
vt 0.296638 0.152651
vt 0.300674 0.154046
vt 0.276019 0.155559
vt 0.267682 0.059883
vt 0.286641 0.057883
vt 0.305680 0.058883
vt 0.324325 0.062861
vt 0.342114 0.069716
vt 0.358606 0.079280
vt 0.249272 0.064835
vt 0.156244 0.340470
vt 0.156243 0.327224
vt 0.156242 0.313977
vt 0.156241 0.300731
vt 0.156240 0.287485
vt 0.156239 0.274238
vt 0.156245 0.353717
vt 0.233761 0.340637
vt 0.233760 0.327391
vt 0.233759 0.314144
vt 0.233758 0.300898
vt 0.233758 0.287652
vt 0.233757 0.274405
vt 0.233762 0.353884
vt 0.196818 0.812545
vt 0.174908 0.419990
vt 0.206463 0.623388
vt 0.265102 0.430123
vt 0.191568 0.860293
vt 0.206890 0.835854
vt 0.195212 0.355204
vt 0.195211 0.341957
vt 0.195210 0.328710
vt 0.195209 0.315464
vt 0.195208 0.302217
vt 0.195207 0.288971
vt 0.195206 0.275725
vt 0.195213 0.368450
vt 0.195205 0.262478
vt 0.692897 0.509929
vt 0.683706 0.504623
vt 0.674514 0.499317
vt 0.665322 0.494011
vt 0.656131 0.488706
vt 0.646939 0.483400
vt 0.637747 0.478094
vt 0.702089 0.515234
vt 0.628556 0.472789
vt 0.567927 0.726428
vt 0.558735 0.721122
vt 0.549544 0.715816
vt 0.540352 0.710510
vt 0.531160 0.705205
vt 0.521969 0.699899
vt 0.512777 0.694593
vt 0.577119 0.731733
vt 0.503586 0.689288
vn 0.375659 -0.190698 -0.906926
vn 0.375659 -0.190698 -0.906926
vn 0.375659 -0.190698 -0.906926
vn 0.375659 -0.190698 -0.906926
vn -0.375661 -0.190698 -0.906925
vn -0.375661 -0.190698 -0.906925
vn -0.375661 -0.190698 -0.906925
vn -0.375661 -0.190698 -0.906925
vn -0.906929 -0.190697 -0.375653
vn -0.906928 -0.190697 -0.375653
vn -0.906929 -0.190697 -0.375653
vn -0.906928 -0.190697 -0.375653
vn -0.906928 -0.190697 0.375653
vn -0.906929 -0.190697 0.375653
vn -0.906929 -0.190697 0.375653
vn -0.906929 -0.190697 0.375653
vn -0.375661 -0.190698 0.906925
vn -0.375661 -0.190698 0.906925
vn -0.375661 -0.190698 0.906925
vn -0.375661 -0.190698 0.906925
vn 0.375659 -0.190698 0.906926
vn 0.375659 -0.190698 0.906926
vn 0.375659 -0.190698 0.906926
vn 0.375659 -0.190698 0.906926
vn 0.906927 -0.190698 0.375656
vn 0.906927 -0.190698 0.375656
vn 0.906927 -0.190698 0.375656
vn 0.906927 -0.190698 0.375656
vn 0.906927 -0.190698 -0.375657
vn 0.906927 -0.190698 -0.375657
vn 0.906927 -0.190698 -0.375657
vn 0.906927 -0.190698 -0.375657
vn 0.000000 -1.000000 0.000000
vn 0.000000 -1.000000 0.000000
vn 0.000000 -1.000000 0.000000
vn 0.000000 -1.000000 0.000000
vn 0.000000 -1.000000 0.000000
vn 0.000000 -1.000000 0.000000
vn 0.000000 -1.000000 0.000000
vn 0.000000 -1.000000 0.000000
vn 0.000000 -1.000000 0.000000
vn 0.000000 1.000000 -0.000000
vn 0.000000 1.000000 -0.000000
vn 0.000000 1.000000 -0.000000
vn 0.000000 1.000000 -0.000000
vn 0.000000 1.000000 -0.000000
vn 0.000000 1.000000 -0.000000
vn 0.000000 1.000000 -0.000000
vn 0.000000 1.000000 -0.000000
vn 0.000000 1.000000 0.000000
vn 0.000000 1.000000 0.000000
vn 0.000000 1.000000 0.000000
vn 0.000000 1.000000 0.000000
vn 0.000000 1.000000 0.000000
vn 0.000000 1.000000 0.000000
vn 0.000000 1.000000 0.000000
vn 0.000000 1.000000 0.000000
vn 0.000000 1.000000 0.000000
vn 0.000000 1.000000 0.000000
vn 0.000000 1.000000 0.000000
vn 0.000000 1.000000 0.000000
vn 0.000000 1.000000 0.000000
vn 0.000000 1.000000 0.000000
vn 0.000000 1.000000 0.000000
vn 0.000000 1.000000 0.000000
vn 0.000000 1.000000 0.000000
vn 0.000000 1.000000 0.000000
vn 0.000000 1.000000 0.000000
vn 0.000000 1.000000 0.000000
vn 0.000000 1.000000 -0.000000
vn 0.000000 1.000000 -0.000000
vn 0.000000 1.000000 -0.000000
vn 0.000000 1.000000 -0.000000
vn 0.382681 0.000000 -0.923880
vn 0.382681 0.000000 -0.923880
vn 0.382681 0.000000 -0.923880
vn 0.382681 0.000000 -0.923880
vn -0.382685 0.000000 -0.923879
vn -0.382685 0.000000 -0.923879
vn -0.382685 0.000000 -0.923879
vn -0.382685 0.000000 -0.923879
vn -0.923887 0.000000 -0.382666
vn -0.923887 0.000000 -0.382666
vn -0.923887 0.000000 -0.382667
vn -0.923887 0.000000 -0.382667
vn -0.923887 0.000000 0.382666
vn -0.923887 0.000000 0.382666
vn -0.923887 0.000000 0.382667
vn -0.923887 0.000000 0.382667
vn -0.382685 0.000000 0.923879
vn -0.382685 0.000000 0.923879
vn -0.382685 0.000000 0.923879
vn -0.382685 0.000000 0.923879
vn 0.382681 0.000000 0.923880
vn 0.382681 0.000000 0.923880
vn 0.382681 0.000000 0.923880
vn 0.382681 0.000000 0.923880
vn 0.923882 0.000000 0.382678
vn 0.923882 0.000000 0.382678
vn 0.923882 0.000000 0.382678
vn 0.923882 0.000000 0.382678
vn 0.923882 0.000000 -0.382678
vn 0.923882 0.000000 -0.382678
vn 0.923882 0.000000 -0.382678
vn 0.923882 0.000000 -0.382678
vn 0.000000 -1.000000 -0.000013
vn 0.000000 -1.000000 -0.000013
vn 0.000000 -1.000000 -0.000013
vn 0.000000 -1.000000 -0.000013
vn 0.000000 -1.000000 0.000000
vn 0.000000 -1.000000 0.000000
vn 0.000000 -1.000000 0.000000
vn 0.000000 -1.000000 0.000000
vn 0.000000 -1.000000 -0.000004
vn 0.000000 -1.000000 -0.000004
vn 0.000000 -1.000000 -0.000004
vn 0.000000 -1.000000 -0.000004
vn 0.000000 -1.000000 0.000009
vn 0.000000 -1.000000 0.000009
vn 0.000000 -1.000000 0.000009
vn 0.000000 -1.000000 0.000009
vn 0.000000 -1.000000 0.000013
vn 0.000000 -1.000000 0.000013
vn 0.000000 -1.000000 0.000013
vn 0.000000 -1.000000 0.000013
vn 0.000000 -1.000000 0.000000
vn 0.000000 -1.000000 0.000000
vn 0.000000 -1.000000 0.000000
vn 0.000000 -1.000000 0.000000
vn 0.000000 -1.000000 -0.000004
vn 0.000000 -1.000000 -0.000004
vn 0.000000 -1.000000 -0.000004
vn 0.000000 -1.000000 -0.000004
vn 0.000000 -1.000000 -0.000009
vn 0.000000 -1.000000 -0.000009
vn 0.000000 -1.000000 -0.000009
vn 0.000000 -1.000000 -0.000009
vn 0.382682 0.000000 -0.923880
vn 0.382682 0.000000 -0.923880
vn 0.382682 0.000000 -0.923880
vn 0.382682 0.000000 -0.923880
vn -0.382685 0.000000 -0.923879
vn -0.382685 0.000000 -0.923879
vn -0.382685 0.000000 -0.923879
vn -0.382685 0.000000 -0.923879
vn -0.923881 0.000000 -0.382679
vn -0.923881 0.000000 -0.382679
vn -0.923881 0.000000 -0.382679
vn -0.923881 0.000000 -0.382679
vn -0.923881 -0.000000 0.382679
vn -0.923881 -0.000000 0.382679
vn -0.923881 -0.000000 0.382679
vn -0.923881 -0.000000 0.382679
vn -0.382685 0.000000 0.923879
vn -0.382685 0.000000 0.923879
vn -0.382685 0.000000 0.923879
vn -0.382685 0.000000 0.923879
vn 0.382680 0.000000 0.923881
vn 0.382680 0.000000 0.923881
vn 0.382681 0.000000 0.923881
vn 0.382681 0.000000 0.923881
vn 0.923876 0.000000 0.382691
vn 0.923876 0.000000 0.382691
vn 0.923876 0.000000 0.382691
vn 0.923876 0.000000 0.382691
vn 0.923876 0.000000 -0.382693
vn 0.923876 0.000000 -0.382693
vn 0.923875 0.000000 -0.382693
vn 0.923875 0.000000 -0.382693
vn -0.000008 1.000000 0.000008
vn -0.000008 1.000000 0.000008
vn -0.000008 1.000000 0.000008
vn -0.000008 1.000000 0.000008
vn 0.000008 1.000000 0.000016
vn 0.000008 1.000000 0.000016
vn 0.000008 1.000000 0.000016
vn 0.000008 1.000000 0.000016
vn 0.000018 1.000000 -0.000008
vn 0.000018 1.000000 -0.000008
vn 0.000018 1.000000 -0.000008
vn 0.000018 1.000000 -0.000008
vn 0.000018 1.000000 0.000008
vn 0.000018 1.000000 0.000008
vn 0.000018 1.000000 0.000008
vn 0.000018 1.000000 0.000008
vn 0.000008 1.000000 -0.000016
vn 0.000008 1.000000 -0.000016
vn 0.000008 1.000000 -0.000016
vn 0.000008 1.000000 -0.000016
vn -0.000008 1.000000 -0.000016
vn -0.000008 1.000000 -0.000016
vn -0.000008 1.000000 -0.000016
vn -0.000008 1.000000 -0.000016
vn -0.000018 1.000000 -0.000016
vn -0.000018 1.000000 -0.000016
vn -0.000018 1.000000 -0.000016
vn -0.000018 1.000000 -0.000016
vn -0.000018 1.000000 0.000024
vn -0.000018 1.000000 0.000024
vn -0.000018 1.000000 0.000024
vn -0.000018 1.000000 0.000024
vn 0.382680 -0.000099 -0.923881
vn 0.382680 -0.000099 -0.923881
vn 0.382680 -0.000099 -0.923881
vn 0.382680 -0.000099 -0.923881
vn -0.382685 -0.000099 -0.923879
vn -0.382685 -0.000099 -0.923879
vn -0.382685 -0.000099 -0.923879
vn -0.382685 -0.000099 -0.923879
vn -0.924236 -0.000049 -0.381821
vn -0.924236 -0.000049 -0.381821
vn -0.905642 -0.042500 -0.421907
vn -0.912957 -0.026725 -0.407179
vn -0.923881 -0.000000 0.382679
vn -0.923881 -0.000000 0.382679
vn -0.912328 -0.026825 0.408581
vn -0.905134 -0.042069 0.423040
vn -0.382684 0.000000 0.923879
vn -0.382684 0.000000 0.923879
vn -0.388064 -0.000023 0.921633
vn -0.389694 -0.000030 0.920944
vn 0.382724 0.000003 0.923863
vn 0.382723 0.000003 0.923863
vn 0.389730 -0.000033 0.920929
vn 0.388100 -0.000024 0.921617
vn 0.923881 0.000002 0.382679
vn 0.923881 0.000002 0.382679
vn 0.905134 -0.042070 0.423040
vn 0.912328 -0.026825 0.408581
vn 0.924227 -0.000050 -0.381842
vn 0.924227 -0.000050 -0.381842
vn 0.912947 -0.026722 -0.407202
vn 0.905631 -0.042495 -0.421933
vn 0.412528 0.052636 -0.909423
vn 0.403891 0.078847 -0.911403
vn 0.415939 0.042001 -0.908422
vn -0.403895 0.078849 -0.911401
vn -0.412531 0.052636 -0.909422
vn -0.415942 0.042000 -0.908421
vn -0.135833 -0.031953 -0.990216
vn -0.353929 0.078811 -0.931946
vn -0.095277 -0.051866 -0.994099
vn -0.352941 0.078469 0.932349
vn -0.135844 -0.031922 0.990216
vn -0.095278 -0.051867 0.994099
vn -0.415355 0.041896 0.908694
vn -0.415355 0.041896 0.908694
vn -0.415355 0.041896 0.908694
vn 0.415359 0.041897 0.908692
vn 0.415359 0.041897 0.908692
vn 0.415359 0.041897 0.908692
vn 0.135879 -0.031956 0.990210
vn 0.353038 0.078487 0.932311
vn 0.095292 -0.051915 0.994095
vn 0.353788 0.078782 -0.932002
vn 0.135782 -0.031915 -0.990225
vn 0.095253 -0.051812 -0.994104
vn 0.474072 0.052350 -0.878928
vn 0.474072 0.052350 -0.878928
vn 0.474072 0.052350 -0.878928
vn -0.474094 0.052352 -0.878916
vn -0.474094 0.052352 -0.878916
vn -0.474094 0.052352 -0.878916
vn -0.095520 0.018134 -0.995262
vn -0.095520 0.018134 -0.995262
vn -0.095520 0.018134 -0.995262
vn -0.095520 0.018135 0.995262
vn -0.095520 0.018135 0.995262
vn -0.095520 0.018135 0.995262
vn -0.474106 0.052355 0.878910
vn -0.474106 0.052355 0.878910
vn -0.474106 0.052355 0.878910
vn 0.474093 0.052353 0.878917
vn 0.474093 0.052353 0.878917
vn 0.474093 0.052353 0.878917
vn 0.095534 0.018135 0.995261
vn 0.095534 0.018135 0.995261
vn 0.095534 0.018135 0.995261
vn 0.095494 0.018132 -0.995265
vn 0.095494 0.018132 -0.995265
vn 0.095494 0.018132 -0.995265
vn 0.524810 -0.102454 -0.845031
vn 0.557234 -0.175678 -0.811559
vn 0.554721 -0.174027 0.813633
vn 0.523156 -0.102575 0.846041
vn 0.404383 0.062779 0.912432
vn 0.402708 0.071562 0.912527
vn 0.398255 0.094116 0.912434
vn 0.398255 0.094116 0.912433
vn -0.402697 0.071570 0.912531
vn -0.404370 0.062789 0.912438
vn -0.398248 0.094119 0.912436
vn -0.398248 0.094119 0.912436
vn -0.523094 -0.102588 0.846078
vn -0.554675 -0.174032 0.813663
vn -0.557329 -0.175688 -0.811491
vn -0.524926 -0.102451 -0.844960
vn -0.404716 0.062882 -0.912278
vn -0.403032 0.071796 -0.912365
vn 0.403028 0.071795 -0.912367
vn 0.404712 0.062882 -0.912279
vn -0.415699 -0.000474 -0.909502
vn -0.415699 -0.000474 -0.909502
vn 0.415698 -0.000468 -0.909503
vn 0.415698 -0.000468 -0.909503
vn 0.923875 0.000000 -0.382694
vn 0.923875 0.000000 -0.382694
vn 0.923876 0.000000 0.382691
vn 0.923876 0.000000 0.382691
vn 0.382681 0.000000 0.923881
vn 0.382681 0.000000 0.923881
vn -0.382685 0.000000 0.923879
vn -0.382685 0.000000 0.923879
vn -0.923881 -0.000000 0.382679
vn -0.923881 -0.000000 0.382679
vn -0.923881 0.000000 -0.382679
vn -0.923881 0.000000 -0.382679
vn -0.382685 0.000000 -0.923879
vn -0.382685 0.000000 -0.923879
vn 0.382682 0.000000 -0.923880
vn 0.382682 0.000000 -0.923880
vn 0.923882 0.000000 -0.382678
vn 0.923882 0.000000 -0.382678
vn 0.923882 0.000000 0.382678
vn 0.923882 0.000000 0.382678
vn 0.382681 0.000000 0.923880
vn 0.382681 0.000000 0.923880
vn -0.382685 0.000000 0.923879
vn -0.382685 0.000000 0.923879
vn -0.923887 0.000000 0.382667
vn -0.923887 0.000000 0.382667
vn -0.923887 0.000000 -0.382667
vn -0.923887 0.000000 -0.382667
vn -0.382685 0.000000 -0.923879
vn -0.382685 0.000000 -0.923879
vn 0.382681 0.000000 -0.923880
vn 0.382681 0.000000 -0.923880
vn 0.923882 0.000000 -0.382678
vn 0.923882 0.000000 -0.382678
vn 0.923882 0.000000 0.382678
vn 0.923882 0.000000 0.382678
vn 0.382681 0.000000 0.923880
vn 0.382681 0.000000 0.923880
vn -0.382685 0.000000 0.923879
vn -0.382685 0.000000 0.923879
vn -0.923887 0.000000 0.382666
vn -0.923887 0.000000 0.382666
vn -0.923887 0.000000 -0.382666
vn -0.923887 0.000000 -0.382666
vn -0.382685 0.000000 -0.923879
vn -0.382685 0.000000 -0.923879
vn 0.382681 0.000000 -0.923880
vn 0.382681 0.000000 -0.923880
s off
g Spear_Mesh
usemtl initialShadingGroup
f 1/143/1 2/148/2 10/141/3 9/12/4
f 2/55/5 3/1/6 11/4/7 10/58/8
f 3/1/9 4/147/10 12/3/11 11/4/12
f 4/147/13 5/146/14 13/6/15 12/3/16
f 5/146/17 6/145/18 14/60/19 13/6/20
f 6/145/21 7/144/22 15/10/23 14/60/24
f 7/144/25 8/142/26 16/9/27 15/10/28
f 8/142/29 1/143/30 9/12/31 16/9/32
s 1
f 2/55/33 1/11/34 17/56/35
f 3/1/36 2/55/33 17/56/35
f 4/2/37 3/1/36 17/56/35
f 5/5/38 4/2/37 17/56/35
f 6/57/39 5/5/38 17/56/35
f 7/7/40 6/57/39 17/56/35
f 8/8/41 7/7/40 17/56/35
f 1/11/34 8/8/41 17/56/35
s off
usemtl texturedFacets3
f 9/12/42 10/141/43 19/140/44 18/134/45
f 10/58/46 11/4/47 20/154/48 19/130/49
f 11/4/50 12/3/51 21/153/52 20/139/53
f 12/3/54 13/6/55 22/152/56 21/138/57
f 13/6/58 14/60/59 23/151/60 22/137/61
f 14/60/62 15/10/63 24/150/64 23/136/65
f 15/10/66 16/9/67 25/149/68 24/135/69
f 16/9/70 9/12/71 18/155/72 25/133/73
s 2
usemtl initialShadingGroup
f 18/23/74 19/131/75 102/192/76 95/185/77
s 3
f 19/59/78 20/13/79 101/191/80 102/193/81
s 4
f 20/13/82 21/14/83 100/190/84 101/191/85
s 5
f 21/14/86 22/17/87 99/189/88 100/190/89
s 6
f 22/17/90 23/61/91 98/188/92 99/189/93
s 7
f 23/61/94 24/19/95 97/187/96 98/188/97
s 8
f 24/19/98 25/20/99 96/186/100 97/187/101
s 9
f 25/20/102 18/23/103 95/185/104 96/186/105
s off
f 26/24/106 27/127/107 35/126/108 34/35/109
f 27/62/110 28/168/111 36/25/112 35/63/113
f 28/16/114 29/167/115 37/26/116 36/25/117
f 29/15/118 30/166/119 38/29/120 37/26/121
f 30/18/122 31/165/123 39/65/124 38/29/125
f 31/64/126 32/164/127 40/31/128 39/65/129
f 32/22/130 33/163/131 41/32/132 40/31/133
f 33/21/134 26/169/135 34/35/136 41/32/137
s 10
f 34/35/138 35/126/139 94/183/140 87/176/141
s 11
f 35/63/142 36/25/143 93/182/144 94/184/145
s 12
f 36/25/146 37/26/147 92/181/148 93/182/149
s 13
f 37/26/150 38/29/151 91/180/152 92/181/153
s 14
f 38/29/154 39/65/155 90/179/156 91/180/157
s 15
f 39/65/158 40/31/159 89/178/160 90/179/161
s 16
f 40/31/162 41/32/163 88/177/164 89/178/165
s 17
f 41/32/166 34/35/167 87/176/168 88/177/169
s off
f 42/36/170 43/124/171 51/125/172 50/109/173
f 43/66/174 44/28/175 52/161/176 51/115/177
f 44/28/178 45/27/179 53/160/180 52/114/181
f 45/27/182 46/30/183 54/159/184 53/113/185
f 46/30/186 47/68/187 55/158/188 54/112/189
f 47/68/190 48/34/191 56/157/192 55/111/193
f 48/34/194 49/33/195 57/156/196 56/110/197
f 49/33/198 42/36/199 50/162/200 57/108/201
f 50/50/202 51/128/203 84/129/204 77/51/205
f 51/67/206 52/37/207 83/97/208 84/95/209
s 18
f 52/37/210 53/38/211 82/98/212 83/97/213
s 19
f 53/38/214 54/41/215 81/99/216 82/98/217
s 20
f 54/41/218 55/69/219 80/100/220 81/99/221
s 21
f 55/69/222 56/46/223 79/101/224 80/100/225
s 22
f 56/46/226 57/47/227 78/102/228 79/101/229
s 23
f 57/47/230 50/50/231 77/51/232 78/102/233
s 24
f 58/73/234 85/72/235 65/75/236
s 25
f 85/72/237 59/74/238 65/75/239
s 18
f 59/91/240 60/94/241 66/106/242
s 19
f 60/107/243 61/89/244 66/80/245
s off
f 61/84/246 62/83/247 67/86/248
f 62/83/249 63/85/250 67/86/251
s 22
f 63/88/252 64/93/253 68/173/254
s 23
f 64/172/255 58/92/256 68/79/257
s off
f 58/92/258 65/90/259 69/171/260
f 65/90/261 59/91/262 69/171/263
f 59/91/264 66/106/265 69/171/266
f 66/80/267 61/89/268 69/78/269
f 61/89/270 67/87/271 69/78/272
f 67/87/273 63/88/274 69/78/275
f 63/88/276 68/173/277 69/78/278
f 68/79/279 58/92/280 69/171/281
s 23
f 71/104/282 70/54/283 58/73/256 64/105/255
s 22
f 72/53/284 71/52/285 64/76/253 63/85/252
s 21
f 73/82/286 72/53/287 63/85/288 62/83/289
s 20
f 74/45/290 73/82/291 62/83/292 61/84/293
s 19
f 75/175/294 74/45/295 61/84/244 60/170/243
s 18
f 76/44/296 75/43/297 60/77/241 59/74/240
s 25
f 86/71/298 76/44/299 59/74/238 85/72/237
s 24
f 70/54/300 86/71/301 85/72/235 58/73/234
s 23
f 78/103/233 77/96/232 70/54/283 71/104/282
s 22
f 79/49/229 78/48/228 71/52/285 72/53/284
s 21
f 80/81/225 79/49/224 72/53/287 73/82/286
s 20
f 81/42/221 80/81/220 73/82/291 74/45/290
s 19
f 82/174/217 81/42/216 74/45/295 75/175/294
s 18
f 83/40/213 82/39/212 75/43/297 76/44/296
s 25
f 84/70/302 83/40/303 76/44/299 86/71/298
s 24
f 77/96/304 84/70/305 86/71/301 70/54/300
s 17
f 88/177/169 87/176/168 42/36/306 49/33/307
s 16
f 89/178/165 88/177/164 49/33/308 48/34/309
s 15
f 90/179/161 89/178/160 48/34/310 47/68/311
s 14
f 91/180/157 90/179/156 47/68/312 46/30/313
s 13
f 92/181/153 91/180/152 46/30/314 45/27/315
s 12
f 93/182/149 92/181/148 45/27/316 44/28/317
s 11
f 94/184/145 93/182/144 44/28/318 43/66/319
s 10
f 87/176/141 94/183/140 43/124/320 42/36/321
s 9
f 96/186/105 95/185/104 103/194/322 104/195/323
s 8
f 97/187/101 96/186/100 104/195/324 105/196/325
s 7
f 98/188/97 97/187/96 105/196/326 106/197/327
s 6
f 99/189/93 98/188/92 106/197/328 107/198/329
s 5
f 100/190/89 99/189/88 107/198/330 108/199/331
s 4
f 101/191/85 100/190/84 108/199/332 109/200/333
s 3
f 102/193/81 101/191/80 109/200/334 110/202/335
s 2
f 95/185/77 102/192/76 110/201/336 103/194/337
s 9
f 104/195/323 103/194/322 26/117/338 33/116/339
s 8
f 105/196/325 104/195/324 33/116/340 32/118/341
s 7
f 106/197/327 105/196/326 32/118/342 31/119/343
s 6
f 107/198/329 106/197/328 31/119/344 30/120/345
s 5
f 108/199/331 107/198/330 30/120/346 29/121/347
s 4
f 109/200/333 108/199/332 29/121/348 28/122/349
s 3
f 110/202/335 109/200/334 28/122/350 27/123/351
s 2
f 103/194/337 110/201/336 27/132/352 26/117/353
