# This file uses centimeters as units for non-parametric coordinates.

mtllib Torch.mtl
g default
v 2.455126 -0.005369 3.983743
v 2.448461 0.000000 3.980198
v 2.441796 0.005369 3.983743
v 2.439035 0.007593 3.992302
v 2.441796 0.005369 4.000861
v 2.448461 0.000000 4.004406
v 2.455126 -0.005369 4.000861
v 2.457887 -0.007593 3.992302
v 2.465175 0.329216 3.975588
v 2.448461 0.329216 3.968665
v 2.431747 0.329216 3.975588
v 2.424824 0.329216 3.992302
v 2.431747 0.329216 4.009016
v 2.448461 0.329216 4.015939
v 2.465175 0.329216 4.009016
v 2.472098 0.329216 3.992302
v 2.448461 0.000000 3.992302
v 2.448461 0.329216 3.992302
v 2.462728 0.230451 3.978035
v 2.468638 0.230451 3.992302
v 2.462728 0.230451 4.006569
v 2.448461 0.230451 4.012479
v 2.434194 0.230451 4.006569
v 2.428284 0.230451 3.992302
v 2.434194 0.230451 3.978035
v 2.448461 0.230451 3.972125
v 2.463952 0.279834 3.976811
v 2.470368 0.279834 3.992302
v 2.463952 0.279834 4.007793
v 2.448461 0.279834 4.014209
v 2.432970 0.279834 4.007793
v 2.426554 0.279834 3.992302
v 2.432970 0.279834 3.976811
v 2.448461 0.279834 3.970395
v 2.464563 0.304525 3.976200
v 2.471233 0.304525 3.992302
v 2.464563 0.304525 4.008404
v 2.448461 0.304525 4.015074
v 2.432359 0.304525 4.008404
v 2.425689 0.304525 3.992302
v 2.432359 0.304525 3.976200
v 2.448461 0.304525 3.969530
v 2.463340 0.255143 3.977423
v 2.469503 0.255143 3.992302
v 2.463340 0.255143 4.007181
v 2.448461 0.255143 4.013344
v 2.433582 0.255143 4.007181
v 2.427419 0.255143 3.992302
v 2.433582 0.255143 3.977423
v 2.448461 0.255143 3.971260
v 2.466327 0.267488 3.974436
v 2.473727 0.267488 3.992302
v 2.466327 0.267488 4.010168
v 2.448461 0.267488 4.017568
v 2.430595 0.267488 4.010168
v 2.423195 0.267488 3.992302
v 2.430595 0.267488 3.974436
v 2.448461 0.267488 3.967036
v 2.466364 0.292179 3.974399
v 2.473780 0.292179 3.992302
v 2.466364 0.292179 4.010205
v 2.448461 0.292179 4.017621
v 2.430558 0.292179 4.010205
v 2.423142 0.292179 3.992302
v 2.430558 0.292179 3.974399
v 2.448461 0.292179 3.966983
v 2.467167 0.316871 3.973596
v 2.474916 0.316871 3.992302
v 2.467167 0.316871 4.011008
v 2.448461 0.316871 4.018757
v 2.429755 0.316871 4.011008
v 2.422006 0.316871 3.992302
v 2.429755 0.316871 3.973596
v 2.448461 0.316871 3.965847
v 2.462471 0.220073 3.978292
v 2.468275 0.220073 3.992302
v 2.462471 0.220073 4.006312
v 2.448461 0.220073 4.012115
v 2.434451 0.220073 4.006312
v 2.428647 0.220073 3.992302
v 2.434451 0.220073 3.978292
v 2.448461 0.220073 3.972488
v 2.461926 0.198066 3.978837
v 2.467504 0.198066 3.992302
v 2.461926 0.198066 4.005767
v 2.448461 0.198066 4.011344
v 2.434996 0.198066 4.005767
v 2.429418 0.198066 3.992302
v 2.434996 0.198066 3.978837
v 2.448461 0.198066 3.973259
v 2.461673 0.187855 3.979090
v 2.467146 0.187855 3.992302
v 2.461673 0.187855 4.005514
v 2.448461 0.187855 4.010987
v 2.435249 0.187855 4.005514
v 2.429776 0.187855 3.992302
v 2.435249 0.187855 3.979090
v 2.448461 0.187855 3.973617
v 2.464371 0.219979 3.976392
v 2.470961 0.219979 3.992302
v 2.464628 0.230357 3.976135
v 2.471325 0.230357 3.992302
v 2.464371 0.219979 4.008212
v 2.464628 0.230357 4.008469
v 2.448461 0.219979 4.014802
v 2.448461 0.230357 4.015166
v 2.432551 0.219979 4.008212
v 2.432294 0.230357 4.008469
v 2.425961 0.219979 3.992302
v 2.425597 0.230357 3.992302
v 2.432551 0.219979 3.976392
v 2.432294 0.230357 3.976135
v 2.448461 0.219979 3.969802
v 2.448461 0.230357 3.969438
v 2.463573 0.187761 3.977190
v 2.469833 0.187761 3.992302
v 2.463826 0.197971 3.976937
v 2.470190 0.197971 3.992302
v 2.463573 0.187761 4.007414
v 2.463826 0.197971 4.007667
v 2.448461 0.187761 4.013674
v 2.448461 0.197971 4.014031
v 2.433349 0.187761 4.007414
v 2.433096 0.197971 4.007667
v 2.427089 0.187761 3.992302
v 2.426732 0.197971 3.992302
v 2.433349 0.187761 3.977190
v 2.433096 0.197971 3.976937
v 2.448461 0.187761 3.970930
v 2.448461 0.197971 3.970573
vt 0.610485 0.045765
vt 0.500000 0.000000
vt 0.389515 0.045765
vt 0.343750 0.156250
vt 0.389515 0.266735
vt 0.500000 0.312500
vt 0.610485 0.266735
vt 0.656250 0.156250
vt 0.375000 0.312500
vt 0.406250 0.312500
vt 0.437500 0.312500
vt 0.468750 0.312500
vt 0.500000 0.312500
vt 0.531250 0.312500
vt 0.562500 0.312500
vt 0.593750 0.312500
vt 0.625000 0.312500
vt 0.375000 0.687500
vt 0.406250 0.687500
vt 0.437500 0.687500
vt 0.468750 0.687500
vt 0.500000 0.687500
vt 0.531250 0.687500
vt 0.562500 0.687500
vt 0.593750 0.687500
vt 0.625000 0.687500
vt 0.610485 0.733265
vt 0.500000 0.687500
vt 0.389515 0.733265
vt 0.343750 0.843750
vt 0.389515 0.954235
vt 0.500000 1.000000
vt 0.610485 0.954235
vt 0.656250 0.843750
vt 0.500000 0.156250
vt 0.500000 0.843750
vt 0.625000 0.575000
vt 0.375000 0.575000
vt 0.593750 0.575000
vt 0.562500 0.575000
vt 0.531250 0.575000
vt 0.500000 0.575000
vt 0.468750 0.575000
vt 0.437500 0.575000
vt 0.406250 0.575000
vt 0.625000 0.631250
vt 0.375000 0.631250
vt 0.593750 0.631250
vt 0.562500 0.631250
vt 0.531250 0.631250
vt 0.500000 0.631250
vt 0.468750 0.631250
vt 0.437500 0.631250
vt 0.406250 0.631250
vt 0.625000 0.659375
vt 0.375000 0.659375
vt 0.593750 0.659375
vt 0.562500 0.659375
vt 0.531250 0.659375
vt 0.500000 0.659375
vt 0.468750 0.659375
vt 0.437500 0.659375
vt 0.406250 0.659375
vt 0.625000 0.603125
vt 0.375000 0.603125
vt 0.593750 0.603125
vt 0.562500 0.603125
vt 0.531250 0.603125
vt 0.500000 0.603125
vt 0.468750 0.603125
vt 0.437500 0.603125
vt 0.406250 0.603125
vt 0.625000 0.617188
vt 0.375000 0.617188
vt 0.593750 0.617188
vt 0.562500 0.617188
vt 0.531250 0.617188
vt 0.500000 0.617188
vt 0.468750 0.617188
vt 0.437500 0.617188
vt 0.406250 0.617188
vt 0.625000 0.645313
vt 0.375000 0.645313
vt 0.593750 0.645313
vt 0.562500 0.645313
vt 0.531250 0.645313
vt 0.500000 0.645313
vt 0.468750 0.645313
vt 0.437500 0.645313
vt 0.406250 0.645313
vt 0.625000 0.673437
vt 0.375000 0.673437
vt 0.593750 0.673437
vt 0.562500 0.673437
vt 0.531250 0.673437
vt 0.500000 0.673437
vt 0.468750 0.673437
vt 0.437500 0.673437
vt 0.406250 0.673437
vt 0.625000 0.548750
vt 0.375000 0.548750
vt 0.593750 0.548750
vt 0.562500 0.548750
vt 0.531250 0.548750
vt 0.500000 0.548750
vt 0.468750 0.548750
vt 0.437500 0.548750
vt 0.406250 0.548750
vt 0.625000 0.525125
vt 0.375000 0.525125
vt 0.593750 0.525125
vt 0.562500 0.525125
vt 0.531250 0.525125
vt 0.500000 0.525125
vt 0.468750 0.525125
vt 0.437500 0.525125
vt 0.406250 0.525125
vt 0.625000 0.503863
vt 0.375000 0.503863
vt 0.593750 0.503863
vt 0.562500 0.503863
vt 0.531250 0.503863
vt 0.500000 0.503863
vt 0.468750 0.503863
vt 0.437500 0.503863
vt 0.406250 0.503863
vt 0.593750 0.548750
vt 0.625000 0.548750
vt 0.625000 0.575000
vt 0.593750 0.575000
vt 0.562500 0.548750
vt 0.562500 0.575000
vt 0.531250 0.548750
vt 0.531250 0.575000
vt 0.500000 0.548750
vt 0.500000 0.575000
vt 0.468750 0.548750
vt 0.468750 0.575000
vt 0.437500 0.548750
vt 0.437500 0.575000
vt 0.406250 0.548750
vt 0.406250 0.575000
vt 0.375000 0.548750
vt 0.375000 0.575000
vt 0.593750 0.503863
vt 0.625000 0.503863
vt 0.625000 0.525125
vt 0.593750 0.525125
vt 0.562500 0.503863
vt 0.562500 0.525125
vt 0.531250 0.503863
vt 0.531250 0.525125
vt 0.500000 0.503863
vt 0.500000 0.525125
vt 0.468750 0.503863
vt 0.468750 0.525125
vt 0.437500 0.503863
vt 0.437500 0.525125
vt 0.406250 0.503863
vt 0.406250 0.525125
vt 0.375000 0.503863
vt 0.375000 0.525125
vn 0.405297 -0.033896 -0.913557
vn 0.405297 -0.033896 -0.913557
vn 0.405297 -0.033896 -0.913557
vn 0.405297 -0.033896 -0.913557
vn -0.420703 -0.034938 -0.906525
vn -0.420703 -0.034938 -0.906525
vn -0.420703 -0.034938 -0.906526
vn -0.420703 -0.034938 -0.906526
vn -0.935908 -0.045261 -0.349325
vn -0.935908 -0.045261 -0.349325
vn -0.935908 -0.045261 -0.349325
vn -0.935908 -0.045261 -0.349325
vn -0.935908 -0.045261 0.349324
vn -0.935908 -0.045261 0.349324
vn -0.935908 -0.045261 0.349324
vn -0.935908 -0.045261 0.349324
vn -0.420704 -0.034938 0.906525
vn -0.420704 -0.034938 0.906525
vn -0.420704 -0.034938 0.906525
vn -0.420704 -0.034938 0.906525
vn 0.405298 -0.033896 0.913556
vn 0.405298 -0.033896 0.913556
vn 0.405298 -0.033896 0.913556
vn 0.405298 -0.033896 0.913556
vn 0.933077 -0.042222 0.357190
vn 0.933077 -0.042222 0.357190
vn 0.933077 -0.042222 0.357190
vn 0.933077 -0.042222 0.357190
vn 0.933077 -0.042222 -0.357191
vn 0.933077 -0.042222 -0.357191
vn 0.933077 -0.042222 -0.357191
vn 0.933077 -0.042222 -0.357191
vn -0.627319 -0.778762 0.000000
vn -0.627319 -0.778762 0.000000
vn -0.627319 -0.778762 0.000000
vn -0.627320 -0.778762 0.000000
vn -0.627320 -0.778762 0.000000
vn -0.627320 -0.778762 0.000000
vn -0.627319 -0.778762 0.000000
vn -0.627319 -0.778762 0.000000
vn -0.627319 -0.778762 0.000000
vn 0.000000 1.000000 0.000000
vn 0.000000 1.000000 0.000000
vn 0.000000 1.000000 0.000000
vn 0.000000 1.000000 0.000000
vn 0.000000 1.000000 0.000000
vn 0.000000 1.000000 0.000000
vn 0.000000 1.000000 0.000000
vn 0.000000 1.000000 0.000000
vn 0.000000 1.000000 0.000000
vn 0.923396 -0.032348 -0.382484
vn 0.923396 -0.032348 -0.382484
vn 0.914954 -0.138668 -0.378987
vn 0.914954 -0.138668 -0.378987
vn 0.923396 -0.032348 0.382483
vn 0.923396 -0.032348 0.382483
vn 0.914954 -0.138668 0.378986
vn 0.914954 -0.138668 0.378986
vn 0.382481 -0.032348 0.923397
vn 0.382481 -0.032348 0.923397
vn 0.378985 -0.138669 0.914954
vn 0.378985 -0.138669 0.914954
vn -0.382483 -0.032348 0.923396
vn -0.382484 -0.032348 0.923396
vn -0.378987 -0.138669 0.914954
vn -0.378987 -0.138669 0.914954
vn -0.923396 -0.032348 0.382483
vn -0.923396 -0.032348 0.382483
vn -0.914954 -0.138668 0.378986
vn -0.914954 -0.138668 0.378986
vn -0.923396 -0.032348 -0.382484
vn -0.923396 -0.032348 -0.382484
vn -0.914954 -0.138668 -0.378987
vn -0.914954 -0.138668 -0.378987
vn -0.382483 -0.032349 -0.923396
vn -0.382483 -0.032349 -0.923396
vn -0.378987 -0.138669 -0.914954
vn -0.378987 -0.138669 -0.914954
vn 0.378985 -0.138669 -0.914954
vn 0.382481 -0.032349 -0.923397
vn 0.382481 -0.032349 -0.923397
vn 0.378985 -0.138669 -0.914954
vn 0.923878 -0.002219 -0.382682
vn 0.923878 -0.002218 -0.382682
vn 0.923505 -0.028468 -0.382529
vn 0.923505 -0.028468 -0.382529
vn 0.923878 -0.002218 0.382681
vn 0.923878 -0.002218 0.382681
vn 0.923505 -0.028468 0.382529
vn 0.923505 -0.028468 0.382529
vn 0.382681 -0.002216 0.923878
vn 0.382681 -0.002217 0.923878
vn 0.382527 -0.028471 0.923505
vn 0.382527 -0.028470 0.923505
vn -0.382683 -0.002217 0.923877
vn -0.382683 -0.002216 0.923877
vn -0.382529 -0.028471 0.923505
vn -0.382529 -0.028471 0.923505
vn -0.923878 -0.002218 0.382681
vn -0.923878 -0.002218 0.382681
vn -0.923505 -0.028470 0.382528
vn -0.923505 -0.028470 0.382528
vn -0.923878 -0.002218 -0.382682
vn -0.923878 -0.002218 -0.382682
vn -0.923505 -0.028470 -0.382528
vn -0.923505 -0.028470 -0.382528
vn -0.382683 -0.002217 -0.923877
vn -0.382683 -0.002217 -0.923877
vn -0.382529 -0.028472 -0.923505
vn -0.382529 -0.028472 -0.923505
vn 0.382681 -0.002217 -0.923878
vn 0.382681 -0.002217 -0.923878
vn 0.382527 -0.028471 -0.923505
vn 0.382527 -0.028472 -0.923505
vn 0.922840 -0.047420 -0.382254
vn 0.922840 -0.047420 -0.382254
vn 0.923511 -0.028228 -0.382531
vn 0.923511 -0.028227 -0.382531
vn 0.922840 -0.047421 0.382254
vn 0.922840 -0.047420 0.382254
vn 0.923511 -0.028227 0.382531
vn 0.923511 -0.028228 0.382531
vn 0.382253 -0.047423 0.922840
vn 0.382253 -0.047422 0.922840
vn 0.382531 -0.028226 0.923511
vn 0.382531 -0.028227 0.923511
vn -0.382253 -0.047422 0.922840
vn -0.382253 -0.047423 0.922840
vn -0.382532 -0.028226 0.923511
vn -0.382532 -0.028227 0.923511
vn -0.922841 -0.047420 0.382252
vn -0.922841 -0.047420 0.382252
vn -0.923512 -0.028225 0.382530
vn -0.923512 -0.028226 0.382530
vn -0.922841 -0.047420 -0.382252
vn -0.922841 -0.047420 -0.382252
vn -0.923512 -0.028226 -0.382530
vn -0.923512 -0.028226 -0.382530
vn -0.382253 -0.047422 -0.922840
vn -0.382253 -0.047421 -0.922840
vn -0.382532 -0.028226 -0.923511
vn -0.382532 -0.028226 -0.923511
vn 0.382253 -0.047422 -0.922840
vn 0.382253 -0.047422 -0.922840
vn 0.382531 -0.028226 -0.923512
vn 0.382531 -0.028226 -0.923512
vn 0.923532 -0.027439 -0.382539
vn 0.923532 -0.027439 -0.382539
vn 0.923532 -0.027439 0.382538
vn 0.923532 -0.027439 0.382538
vn 0.382538 -0.027439 0.923532
vn 0.382538 -0.027439 0.923532
vn -0.382540 -0.027439 0.923531
vn -0.382540 -0.027439 0.923531
vn -0.923532 -0.027439 0.382538
vn -0.923532 -0.027439 0.382538
vn -0.923532 -0.027439 -0.382539
vn -0.923532 -0.027439 -0.382539
vn -0.382540 -0.027438 -0.923531
vn -0.382540 -0.027438 -0.923531
vn 0.382538 -0.027438 -0.923532
vn 0.382538 -0.027438 -0.923532
vn 0.904004 0.206310 -0.374450
vn 0.904004 0.206310 -0.374450
vn 0.904004 0.206310 0.374450
vn 0.904004 0.206310 0.374450
vn 0.374451 0.206310 0.904004
vn 0.374451 0.206310 0.904004
vn -0.374453 0.206311 0.904003
vn -0.374453 0.206311 0.904003
vn -0.904004 0.206310 0.374450
vn -0.904004 0.206310 0.374450
vn -0.904004 0.206310 -0.374451
vn -0.904004 0.206310 -0.374451
vn -0.374453 0.206311 -0.904003
vn -0.374453 0.206311 -0.904003
vn 0.374450 0.206310 -0.904004
vn 0.374450 0.206310 -0.904004
vn 0.923395 -0.032347 -0.382485
vn 0.923396 -0.032347 -0.382485
vn 0.923396 -0.032347 -0.382485
vn 0.923395 -0.032347 -0.382485
vn 0.923396 -0.032347 0.382485
vn 0.923395 -0.032347 0.382484
vn 0.923396 -0.032347 0.382485
vn 0.923396 -0.032347 0.382485
vn 0.382483 -0.032348 0.923396
vn 0.382483 -0.032348 0.923396
vn 0.382483 -0.032348 0.923396
vn 0.382483 -0.032348 0.923396
vn -0.382485 -0.032348 0.923396
vn -0.382485 -0.032348 0.923395
vn -0.382485 -0.032348 0.923396
vn -0.382485 -0.032348 0.923396
vn -0.923395 -0.032347 0.382485
vn -0.923396 -0.032347 0.382485
vn -0.923396 -0.032347 0.382485
vn -0.923396 -0.032347 0.382485
vn -0.923396 -0.032347 -0.382485
vn -0.923395 -0.032347 -0.382484
vn -0.923396 -0.032347 -0.382485
vn -0.923396 -0.032347 -0.382485
vn -0.382484 -0.032349 -0.923396
vn -0.382484 -0.032349 -0.923396
vn -0.382484 -0.032349 -0.923396
vn -0.382484 -0.032349 -0.923396
vn 0.382482 -0.032349 -0.923397
vn 0.382482 -0.032349 -0.923396
vn 0.382482 -0.032349 -0.923397
vn 0.382482 -0.032349 -0.923396
vn 0.923394 -0.032350 -0.382487
vn 0.923394 -0.032350 -0.382487
vn 0.923394 -0.032350 -0.382487
vn 0.923394 -0.032350 -0.382487
vn 0.923395 -0.032350 0.382486
vn 0.923395 -0.032350 0.382486
vn 0.923395 -0.032350 0.382486
vn 0.923395 -0.032350 0.382486
vn 0.382483 -0.032350 0.923396
vn 0.382483 -0.032350 0.923396
vn 0.382483 -0.032350 0.923396
vn 0.382483 -0.032350 0.923396
vn -0.382485 -0.032350 0.923395
vn -0.382485 -0.032350 0.923395
vn -0.382485 -0.032350 0.923395
vn -0.382485 -0.032350 0.923395
vn -0.923395 -0.032350 0.382486
vn -0.923395 -0.032350 0.382486
vn -0.923395 -0.032350 0.382486
vn -0.923395 -0.032350 0.382486
vn -0.923394 -0.032350 -0.382487
vn -0.923394 -0.032350 -0.382487
vn -0.923394 -0.032350 -0.382487
vn -0.923394 -0.032350 -0.382487
vn -0.382485 -0.032350 -0.923395
vn -0.382485 -0.032350 -0.923395
vn -0.382485 -0.032350 -0.923395
vn -0.382485 -0.032350 -0.923395
vn 0.382483 -0.032350 -0.923396
vn 0.382483 -0.032350 -0.923396
vn 0.382483 -0.032350 -0.923396
vn 0.382483 -0.032350 -0.923396
vn 0.923396 -0.032352 -0.382484
vn 0.923396 -0.032352 -0.382484
vn 0.923396 -0.032352 -0.382484
vn 0.923396 -0.032352 -0.382484
vn 0.923396 -0.032352 0.382484
vn 0.923396 -0.032352 0.382484
vn 0.923396 -0.032352 0.382484
vn 0.923396 -0.032352 0.382484
vn 0.382482 -0.032352 0.923396
vn 0.382482 -0.032352 0.923396
vn 0.382482 -0.032352 0.923396
vn 0.382482 -0.032352 0.923396
vn -0.382483 -0.032350 0.923396
vn -0.382483 -0.032350 0.923396
vn -0.382483 -0.032350 0.923396
vn -0.382483 -0.032350 0.923396
vn -0.923397 -0.032348 0.382482
vn -0.923397 -0.032348 0.382482
vn -0.923397 -0.032348 0.382482
vn -0.923397 -0.032348 0.382482
vn -0.923397 -0.032348 -0.382482
vn -0.923397 -0.032348 -0.382482
vn -0.923397 -0.032348 -0.382482
vn -0.923397 -0.032348 -0.382482
vn -0.382483 -0.032348 -0.923396
vn -0.382483 -0.032348 -0.923396
vn -0.382483 -0.032348 -0.923396
vn -0.382483 -0.032348 -0.923396
vn 0.382482 -0.032350 -0.923396
vn 0.382482 -0.032350 -0.923397
vn 0.382482 -0.032350 -0.923397
vn 0.382482 -0.032350 -0.923396
vn -0.035014 -0.999387 -0.000000
vn -0.024759 -0.999387 0.024758
vn -0.024759 -0.999387 0.024758
vn -0.035014 -0.999387 -0.000000
vn 0.024759 0.999387 -0.024758
vn 0.035015 0.999387 0.000001
vn 0.035015 0.999387 0.000001
vn 0.024759 0.999387 -0.024758
vn -0.024759 -0.999387 -0.024759
vn -0.024759 -0.999387 -0.024759
vn 0.024759 0.999387 0.024760
vn 0.024759 0.999387 0.024760
vn 0.000000 -0.999387 -0.035013
vn -0.000000 -0.999387 -0.035013
vn -0.000000 0.999387 0.035015
vn 0.000000 0.999387 0.035015
vn 0.024759 -0.999387 -0.024758
vn 0.024759 -0.999387 -0.024758
vn -0.024759 0.999387 0.024758
vn -0.024759 0.999387 0.024758
vn 0.035014 -0.999387 0.000000
vn 0.035014 -0.999387 0.000000
vn -0.035015 0.999387 -0.000001
vn -0.035015 0.999387 -0.000001
vn 0.024759 -0.999387 0.024759
vn 0.024759 -0.999387 0.024759
vn -0.024759 0.999387 -0.024760
vn -0.024759 0.999387 -0.024760
vn 0.000000 -0.999387 0.035013
vn -0.000000 -0.999387 0.035013
vn -0.000000 0.999387 -0.035015
vn 0.000000 0.999387 -0.035015
vn -0.035014 -0.999387 0.000001
vn -0.024759 -0.999387 0.024760
vn -0.024759 -0.999387 0.024760
vn -0.035014 -0.999387 0.000001
vn 0.024765 0.999387 -0.024766
vn 0.035022 0.999387 -0.000000
vn 0.035022 0.999387 0.000000
vn 0.024765 0.999387 -0.024766
vn -0.024759 -0.999387 -0.024758
vn -0.024759 -0.999387 -0.024758
vn 0.024765 0.999387 0.024766
vn 0.024765 0.999386 0.024766
vn 0.000000 -0.999387 -0.035015
vn -0.000000 -0.999387 -0.035015
vn -0.000000 0.999386 0.035025
vn 0.000000 0.999386 0.035025
vn 0.024759 -0.999387 -0.024760
vn 0.024759 -0.999387 -0.024760
vn -0.024765 0.999387 0.024766
vn -0.024765 0.999386 0.024766
vn 0.035014 -0.999387 -0.000001
vn 0.035014 -0.999387 -0.000001
vn -0.035022 0.999387 -0.000000
vn -0.035022 0.999387 0.000000
vn 0.024758 -0.999387 0.024758
vn 0.024759 -0.999387 0.024758
vn -0.024765 0.999387 -0.024766
vn -0.024765 0.999386 -0.024766
vn 0.000000 -0.999387 0.035015
vn -0.000000 -0.999387 0.035015
vn -0.000000 0.999386 -0.035025
vn 0.000000 0.999386 -0.035025
s off
g pCylinder6
usemtl initialShadingGroup
f 1/9/1 2/10/2 98/126/3 91/119/4
f 2/10/5 3/11/6 97/125/7 98/126/8
f 3/11/9 4/12/10 96/124/11 97/125/12
f 4/12/13 5/13/14 95/123/15 96/124/16
f 5/13/17 6/14/18 94/122/19 95/123/20
f 6/14/21 7/15/22 93/121/23 94/122/24
f 7/15/25 8/16/26 92/120/27 93/121/28
f 8/16/29 1/17/30 91/118/31 92/120/32
s 1
f 2/2/33 1/1/34 17/35/35
f 3/3/36 2/2/33 17/35/35
f 4/4/37 3/3/36 17/35/35
f 5/5/38 4/4/37 17/35/35
f 6/6/39 5/5/38 17/35/35
f 7/7/40 6/6/39 17/35/35
f 8/8/41 7/7/40 17/35/35
f 1/1/34 8/8/41 17/35/35
s 2
f 9/33/42 10/32/43 18/36/44
f 10/32/43 11/31/45 18/36/44
f 11/31/45 12/30/46 18/36/44
f 12/30/46 13/29/47 18/36/44
f 13/29/47 14/28/48 18/36/44
f 14/28/48 15/27/49 18/36/44
f 15/27/49 16/34/50 18/36/44
f 16/34/50 9/33/42 18/36/44
s 3
f 20/39/51 19/37/52 43/64/53 44/66/54
s 4
f 21/40/55 20/39/56 44/66/57 45/67/58
s 5
f 22/41/59 21/40/60 45/67/61 46/68/62
s 6
f 23/42/63 22/41/64 46/68/65 47/69/66
s 7
f 24/43/67 23/42/68 47/69/69 48/70/70
s 8
f 25/44/71 24/43/72 48/70/73 49/71/74
s 9
f 26/45/75 25/44/76 49/71/77 50/72/78
s 10
f 43/65/79 19/38/80 26/45/81 50/72/82
s 3
f 28/48/83 27/46/84 59/82/85 60/84/86
s 4
f 29/49/87 28/48/88 60/84/89 61/85/90
s 5
f 30/50/91 29/49/92 61/85/93 62/86/94
s 6
f 31/51/95 30/50/96 62/86/97 63/87/98
s 7
f 32/52/99 31/51/100 63/87/101 64/88/102
s 8
f 33/53/103 32/52/104 64/88/105 65/89/106
s 9
f 34/54/107 33/53/108 65/89/109 66/90/110
s 10
f 27/47/111 34/54/112 66/90/113 59/83/114
s 3
f 36/57/115 35/55/116 67/91/117 68/93/118
s 4
f 37/58/119 36/57/120 68/93/121 69/94/122
s 5
f 38/59/123 37/58/124 69/94/125 70/95/126
s 6
f 39/60/127 38/59/128 70/95/129 71/96/130
s 7
f 40/61/131 39/60/132 71/96/133 72/97/134
s 8
f 41/62/135 40/61/136 72/97/137 73/98/138
s 9
f 42/63/139 41/62/140 73/98/141 74/99/142
s 10
f 35/56/143 42/63/144 74/99/145 67/92/146
s 3
f 44/66/54 43/64/53 51/73/147 52/75/148
s 4
f 45/67/58 44/66/57 52/75/149 53/76/150
s 5
f 46/68/62 45/67/61 53/76/151 54/77/152
s 6
f 47/69/66 46/68/65 54/77/153 55/78/154
s 7
f 48/70/70 47/69/69 55/78/155 56/79/156
s 8
f 49/71/74 48/70/73 56/79/157 57/80/158
s 9
f 50/72/78 49/71/77 57/80/159 58/81/160
s 10
f 43/65/79 50/72/82 58/81/161 51/74/162
s 3
f 52/75/148 51/73/147 27/46/84 28/48/83
s 4
f 53/76/150 52/75/149 28/48/88 29/49/87
s 5
f 54/77/152 53/76/151 29/49/92 30/50/91
s 6
f 55/78/154 54/77/153 30/50/96 31/51/95
s 7
f 56/79/156 55/78/155 31/51/100 32/52/99
s 8
f 57/80/158 56/79/157 32/52/104 33/53/103
s 9
f 58/81/160 57/80/159 33/53/108 34/54/107
s 10
f 51/74/162 58/81/161 34/54/112 27/47/111
s 3
f 60/84/86 59/82/85 35/55/116 36/57/115
s 4
f 61/85/90 60/84/89 36/57/120 37/58/119
s 5
f 62/86/94 61/85/93 37/58/124 38/59/123
s 6
f 63/87/98 62/86/97 38/59/128 39/60/127
s 7
f 64/88/102 63/87/101 39/60/132 40/61/131
s 8
f 65/89/106 64/88/105 40/61/136 41/62/135
s 9
f 66/90/110 65/89/109 41/62/140 42/63/139
s 10
f 59/83/114 66/90/113 42/63/144 35/56/143
s 3
f 68/93/118 67/91/117 9/26/163 16/25/164
s 4
f 69/94/122 68/93/121 16/25/165 15/24/166
s 5
f 70/95/126 69/94/125 15/24/167 14/23/168
s 6
f 71/96/130 70/95/129 14/23/169 13/22/170
s 7
f 72/97/134 71/96/133 13/22/171 12/21/172
s 8
f 73/98/138 72/97/137 12/21/173 11/20/174
s 9
f 74/99/142 73/98/141 11/20/175 10/19/176
s 10
f 67/92/146 74/99/145 10/19/177 9/18/178
s off
f 100/127/179 99/128/180 101/129/181 102/130/182
f 103/131/183 100/127/184 102/130/185 104/132/186
f 105/133/187 103/131/188 104/132/189 106/134/190
f 107/135/191 105/133/192 106/134/193 108/136/194
f 109/137/195 107/135/196 108/136/197 110/138/198
f 111/139/199 109/137/200 110/138/201 112/140/202
f 113/141/203 111/139/204 112/140/205 114/142/206
f 99/143/207 113/141/208 114/142/209 101/144/210
f 84/111/211 83/109/212 75/100/213 76/102/214
f 85/112/215 84/111/216 76/102/217 77/103/218
f 86/113/219 85/112/220 77/103/221 78/104/222
f 87/114/223 86/113/224 78/104/225 79/105/226
f 88/115/227 87/114/228 79/105/229 80/106/230
f 89/116/231 88/115/232 80/106/233 81/107/234
f 90/117/235 89/116/236 81/107/237 82/108/238
f 83/110/239 90/117/240 82/108/241 75/101/242
f 116/145/243 115/146/244 117/147/245 118/148/246
f 119/149/247 116/145/248 118/148/249 120/150/250
f 121/151/251 119/149/252 120/150/253 122/152/254
f 123/153/255 121/151/256 122/152/257 124/154/258
f 125/155/259 123/153/260 124/154/261 126/156/262
f 127/157/263 125/155/264 126/156/265 128/158/266
f 129/159/267 127/157/268 128/158/269 130/160/270
f 115/161/271 129/159/272 130/160/273 117/162/274
s 19
f 76/102/275 75/100/276 99/128/277 100/127/278
s 20
f 19/37/279 20/39/280 102/130/281 101/129/282
s 19
f 77/103/283 76/102/275 100/127/278 103/131/284
s 20
f 20/39/280 21/40/285 104/132/286 102/130/281
s 19
f 78/104/287 77/103/283 103/131/284 105/133/288
s 20
f 21/40/285 22/41/289 106/134/290 104/132/286
s 19
f 79/105/291 78/104/287 105/133/288 107/135/292
s 20
f 22/41/289 23/42/293 108/136/294 106/134/290
s 19
f 80/106/295 79/105/291 107/135/292 109/137/296
s 20
f 23/42/293 24/43/297 110/138/298 108/136/294
s 19
f 81/107/299 80/106/295 109/137/296 111/139/300
s 20
f 24/43/297 25/44/301 112/140/302 110/138/298
s 19
f 82/108/303 81/107/299 111/139/300 113/141/304
s 20
f 25/44/301 26/45/305 114/142/306 112/140/302
s 19
f 75/101/276 82/108/303 113/141/304 99/143/277
s 20
f 26/45/305 19/38/279 101/144/282 114/142/306
s 21
f 92/120/307 91/118/308 115/146/309 116/145/310
s 22
f 83/109/311 84/111/312 118/148/313 117/147/314
s 21
f 93/121/315 92/120/307 116/145/310 119/149/316
s 22
f 84/111/312 85/112/317 120/150/318 118/148/313
s 21
f 94/122/319 93/121/315 119/149/316 121/151/320
s 22
f 85/112/317 86/113/321 122/152/322 120/150/318
s 21
f 95/123/323 94/122/319 121/151/320 123/153/324
s 22
f 86/113/321 87/114/325 124/154/326 122/152/322
s 21
f 96/124/327 95/123/323 123/153/324 125/155/328
s 22
f 87/114/325 88/115/329 126/156/330 124/154/326
s 21
f 97/125/331 96/124/327 125/155/328 127/157/332
s 22
f 88/115/329 89/116/333 128/158/334 126/156/330
s 21
f 98/126/335 97/125/331 127/157/332 129/159/336
s 22
f 89/116/333 90/117/337 130/160/338 128/158/334
s 21
f 91/119/308 98/126/335 129/159/336 115/161/309
s 22
f 90/117/337 83/110/311 117/162/314 130/160/338
