# This file uses centimeters as units for non-parametric coordinates.

mtllib HealingPotion.mtl
g default
v 0.459254 0.000000 3.973279
v 0.440231 0.000000 3.965399
v 0.421208 0.000000 3.973279
v 0.413328 0.000000 3.992302
v 0.421208 0.000000 4.011325
v 0.440231 0.000000 4.019205
v 0.459254 0.000000 4.011325
v 0.467134 0.000000 3.992302
v 0.459254 0.007940 3.973279
v 0.440231 0.007940 3.965399
v 0.421208 0.007940 3.973279
v 0.413328 0.007940 3.992302
v 0.421208 0.007940 4.011325
v 0.440231 0.007940 4.019205
v 0.459254 0.007940 4.011325
v 0.467134 0.007940 3.992302
v 0.440231 0.000000 3.992302
v 0.459254 0.137110 3.973279
v 0.440231 0.137110 3.965399
v 0.421208 0.137110 3.973279
v 0.413328 0.137110 3.992302
v 0.421208 0.137110 4.011325
v 0.440231 0.137110 4.019205
v 0.459254 0.137110 4.011325
v 0.467134 0.137110 3.992302
v 0.462956 0.072525 3.969577
v 0.472370 0.072525 3.992302
v 0.462956 0.072525 4.015028
v 0.440231 0.072525 4.024441
v 0.417505 0.072525 4.015028
v 0.408092 0.072525 3.992302
v 0.417505 0.072525 3.969577
v 0.440231 0.072525 3.960163
v 0.464053 0.124193 3.968480
v 0.473921 0.124193 3.992302
v 0.464053 0.124193 4.016125
v 0.440231 0.124193 4.025992
v 0.416408 0.124193 4.016125
v 0.406541 0.124193 3.992302
v 0.416408 0.124193 3.968480
v 0.440231 0.124193 3.958612
v 0.462134 0.140562 3.970399
v 0.440231 0.140562 3.961327
v 0.418328 0.140562 3.970399
v 0.409256 0.140562 3.992302
v 0.418328 0.140562 4.014205
v 0.440231 0.140562 4.023277
v 0.462134 0.140562 4.014205
v 0.471206 0.140562 3.992302
v 0.462134 0.146047 3.970399
v 0.440231 0.146047 3.961327
v 0.418328 0.146047 3.970399
v 0.409256 0.146047 3.992302
v 0.418328 0.146047 4.014205
v 0.440231 0.146047 4.023277
v 0.462134 0.146047 4.014205
v 0.471206 0.146047 3.992302
v 0.459254 0.149612 3.973279
v 0.440231 0.149612 3.965399
v 0.421208 0.149612 3.973279
v 0.413328 0.149612 3.992302
v 0.421208 0.149612 4.011325
v 0.440231 0.149612 4.019205
v 0.459254 0.149612 4.011325
v 0.467134 0.149612 3.992302
v 0.455644 0.149612 3.976889
v 0.440231 0.149612 3.970505
v 0.424818 0.149612 3.976889
v 0.418434 0.149612 3.992302
v 0.424818 0.149612 4.007715
v 0.440231 0.149612 4.014099
v 0.455644 0.149612 4.007715
v 0.462028 0.149612 3.992302
v 0.455644 0.146760 3.976889
v 0.440231 0.146760 3.970505
v 0.424818 0.146760 3.976889
v 0.418434 0.146760 3.992302
v 0.424818 0.146760 4.007715
v 0.440231 0.146760 4.014099
v 0.455644 0.146760 4.007715
v 0.462028 0.146760 3.992302
v 0.454992 0.146760 3.977541
v 0.440231 0.146760 3.971426
v 0.425470 0.146760 3.977541
v 0.419355 0.146760 3.992302
v 0.425470 0.146760 4.007063
v 0.440231 0.146760 4.013178
v 0.454992 0.146760 4.007063
v 0.461107 0.146760 3.992302
v 0.458283 0.172905 3.974250
v 0.440231 0.172905 3.966772
v 0.440231 0.172905 3.992302
v 0.422179 0.172905 3.974250
v 0.414701 0.172905 3.992302
v 0.422179 0.172905 4.010354
v 0.440231 0.172905 4.017832
v 0.458283 0.172905 4.010354
v 0.465761 0.172905 3.992302
vt 0.610485 0.045765
vt 0.500000 0.000000
vt 0.389515 0.045765
vt 0.343750 0.156250
vt 0.389515 0.266735
vt 0.500000 0.312500
vt 0.610485 0.266735
vt 0.656250 0.156250
vt 0.375000 0.312500
vt 0.406250 0.312500
vt 0.437500 0.312500
vt 0.468750 0.312500
vt 0.500000 0.312500
vt 0.531250 0.312500
vt 0.562500 0.312500
vt 0.593750 0.312500
vt 0.625000 0.312500
vt 0.375000 0.687500
vt 0.406250 0.687500
vt 0.437500 0.687500
vt 0.468750 0.687500
vt 0.500000 0.687500
vt 0.531250 0.687500
vt 0.562500 0.687500
vt 0.593750 0.687500
vt 0.625000 0.687500
vt 0.610485 0.733265
vt 0.500000 0.687500
vt 0.389515 0.733265
vt 0.343750 0.843750
vt 0.389515 0.954235
vt 0.500000 1.000000
vt 0.610485 0.954235
vt 0.656250 0.843750
vt 0.500000 0.156250
vt 0.500000 0.843750
vt 0.610485 0.954235
vt 0.500000 1.000000
vt 0.389515 0.954235
vt 0.343750 0.843750
vt 0.389515 0.733265
vt 0.500000 0.687500
vt 0.610485 0.733265
vt 0.656250 0.843750
vt 0.610485 0.954235
vt 0.656250 0.843750
vt 0.610485 0.733265
vt 0.500000 0.687500
vt 0.389515 0.733265
vt 0.343750 0.843750
vt 0.389515 0.954235
vt 0.500000 1.000000
vt 0.610485 0.954235
vt 0.656250 0.843750
vt 0.610485 0.733265
vt 0.500000 0.687500
vt 0.389515 0.733265
vt 0.343750 0.843750
vt 0.389515 0.954235
vt 0.500000 1.000000
vt 0.610485 0.954235
vt 0.500000 1.000000
vt 0.389515 0.954235
vt 0.343750 0.843750
vt 0.389515 0.733265
vt 0.500000 0.687500
vt 0.610485 0.733265
vt 0.656250 0.843750
vt 0.610485 0.954235
vt 0.500000 1.000000
vt 0.389515 0.954235
vt 0.343750 0.843750
vt 0.389515 0.733265
vt 0.500000 0.687500
vt 0.610485 0.733265
vt 0.656250 0.843750
vt 0.610485 0.954235
vt 0.500000 1.000000
vt 0.389515 0.954235
vt 0.343750 0.843750
vt 0.389515 0.733265
vt 0.500000 0.687500
vt 0.610485 0.733265
vt 0.656250 0.843750
vt 0.610485 0.954235
vt 0.500000 1.000000
vt 0.389515 0.954235
vt 0.343750 0.843750
vt 0.389515 0.733265
vt 0.500000 0.687500
vt 0.610485 0.733265
vt 0.656250 0.843750
vt 0.610485 0.954235
vt 0.500000 1.000000
vt 0.389515 0.954235
vt 0.343750 0.843750
vt 0.389515 0.733265
vt 0.500000 0.687500
vt 0.610485 0.733265
vt 0.656250 0.843750
vt 0.610485 0.954235
vt 0.500000 1.000000
vt 0.389515 0.954235
vt 0.343750 0.843750
vt 0.389515 0.733265
vt 0.500000 0.687500
vt 0.610485 0.733265
vt 0.656250 0.843750
vt 0.610485 0.954235
vt 0.500000 1.000000
vt 0.389515 0.954235
vt 0.343750 0.843750
vt 0.389515 0.733265
vt 0.500000 0.687500
vt 0.610485 0.733265
vt 0.656250 0.843750
vn 0.382683 -0.000000 -0.923880
vn 0.382683 -0.000000 -0.923880
vn 0.382683 -0.000000 -0.923880
vn 0.382683 -0.000000 -0.923880
vn -0.382683 -0.000000 -0.923880
vn -0.382683 -0.000000 -0.923880
vn -0.382683 -0.000000 -0.923880
vn -0.382683 -0.000000 -0.923880
vn -0.923880 0.000000 -0.382683
vn -0.923880 0.000000 -0.382683
vn -0.923880 0.000000 -0.382683
vn -0.923880 0.000000 -0.382683
vn -0.923880 0.000000 0.382683
vn -0.923880 0.000000 0.382683
vn -0.923880 0.000000 0.382683
vn -0.923880 0.000000 0.382683
vn -0.382683 -0.000002 0.923880
vn -0.382683 -0.000002 0.923880
vn -0.382683 -0.000002 0.923880
vn -0.382683 -0.000002 0.923880
vn 0.382683 -0.000002 0.923880
vn 0.382683 -0.000002 0.923880
vn 0.382683 -0.000002 0.923880
vn 0.382683 -0.000002 0.923880
vn 0.923880 -0.000000 0.382683
vn 0.923880 -0.000000 0.382683
vn 0.923880 -0.000000 0.382683
vn 0.923880 -0.000000 0.382683
vn 0.923880 0.000000 -0.382683
vn 0.923880 0.000000 -0.382683
vn 0.923880 0.000000 -0.382683
vn 0.923880 0.000000 -0.382683
vn 0.000000 -1.000000 0.000000
vn 0.000000 -1.000000 0.000000
vn 0.000000 -1.000000 0.000000
vn 0.000000 -1.000000 0.000000
vn 0.000000 -1.000000 0.000000
vn 0.000000 -1.000000 0.000000
vn 0.000000 -1.000000 0.000000
vn 0.000000 -1.000000 0.000000
vn 0.000000 -1.000000 0.000000
vn 0.000000 1.000000 0.000000
vn 0.000000 1.000000 0.000000
vn 0.000000 1.000000 0.000000
vn 0.000000 1.000000 0.000000
vn 0.000000 1.000000 0.000000
vn 0.000000 1.000000 0.000000
vn 0.000000 1.000000 0.000000
vn 0.000000 1.000000 0.000000
vn 0.000000 1.000000 0.000000
vn 0.381614 -0.074690 -0.921299
vn 0.381614 -0.074690 -0.921299
vn 0.382160 -0.052275 -0.922617
vn 0.382160 -0.052275 -0.922617
vn -0.381614 -0.074690 -0.921299
vn -0.381614 -0.074690 -0.921299
vn -0.382160 -0.052275 -0.922617
vn -0.382160 -0.052275 -0.922617
vn -0.921299 -0.074690 -0.381614
vn -0.921299 -0.074690 -0.381614
vn -0.922617 -0.052274 -0.382159
vn -0.922617 -0.052274 -0.382159
vn -0.921299 -0.074689 0.381614
vn -0.921299 -0.074689 0.381614
vn -0.922617 -0.052274 0.382159
vn -0.922617 -0.052274 0.382159
vn -0.381615 -0.074689 0.921299
vn -0.381615 -0.074689 0.921299
vn -0.382160 -0.052275 0.922616
vn -0.382160 -0.052275 0.922616
vn 0.381614 -0.074689 0.921299
vn 0.381614 -0.074689 0.921299
vn 0.382160 -0.052275 0.922616
vn 0.382160 -0.052275 0.922616
vn 0.921299 -0.074689 0.381614
vn 0.921299 -0.074689 0.381614
vn 0.922617 -0.052274 0.382159
vn 0.922617 -0.052274 0.382159
vn 0.921299 -0.074690 -0.381614
vn 0.921299 -0.074690 -0.381614
vn 0.922617 -0.052274 -0.382159
vn 0.922617 -0.052274 -0.382159
vn 0.922238 0.059602 -0.382001
vn 0.922238 0.059602 -0.382001
vn 0.922238 0.059602 0.382001
vn 0.922238 0.059602 0.382001
vn 0.382003 0.059602 0.922237
vn 0.382003 0.059602 0.922237
vn -0.382003 0.059602 0.922237
vn -0.382003 0.059602 0.922237
vn -0.922238 0.059602 0.382001
vn -0.922238 0.059602 0.382001
vn -0.922238 0.059602 -0.382001
vn -0.922238 0.059602 -0.382001
vn -0.382003 0.059602 -0.922237
vn -0.382003 0.059602 -0.922237
vn 0.382003 0.059602 -0.922237
vn 0.382003 0.059602 -0.922237
vn 0.831124 0.436712 -0.344261
vn 0.831124 0.436712 -0.344261
vn 0.831124 0.436712 0.344261
vn 0.831124 0.436712 0.344261
vn 0.344262 0.436714 0.831122
vn 0.344262 0.436714 0.831122
vn -0.344263 0.436714 0.831122
vn -0.344263 0.436714 0.831122
vn -0.831124 0.436712 0.344261
vn -0.831124 0.436712 0.344261
vn -0.831124 0.436712 -0.344261
vn -0.831124 0.436712 -0.344261
vn -0.344262 0.436714 -0.831123
vn -0.344262 0.436714 -0.831123
vn 0.344262 0.436714 -0.831122
vn 0.344262 0.436714 -0.831122
vn 0.258706 -0.736872 -0.624572
vn 0.258706 -0.736872 -0.624572
vn 0.258706 -0.736872 -0.624572
vn 0.258706 -0.736872 -0.624572
vn -0.258706 -0.736872 -0.624572
vn -0.258706 -0.736872 -0.624572
vn -0.258706 -0.736872 -0.624572
vn -0.258706 -0.736872 -0.624572
vn -0.624575 -0.736870 -0.258707
vn -0.624575 -0.736870 -0.258707
vn -0.624575 -0.736870 -0.258707
vn -0.624575 -0.736870 -0.258707
vn -0.624575 -0.736870 0.258707
vn -0.624575 -0.736870 0.258707
vn -0.624575 -0.736870 0.258707
vn -0.624575 -0.736870 0.258707
vn -0.258707 -0.736872 0.624573
vn -0.258707 -0.736872 0.624573
vn -0.258707 -0.736872 0.624573
vn -0.258707 -0.736872 0.624573
vn 0.258706 -0.736871 0.624573
vn 0.258706 -0.736871 0.624573
vn 0.258706 -0.736871 0.624573
vn 0.258707 -0.736871 0.624573
vn 0.624575 -0.736870 0.258707
vn 0.624575 -0.736870 0.258707
vn 0.624575 -0.736870 0.258707
vn 0.624575 -0.736870 0.258707
vn 0.624575 -0.736870 -0.258707
vn 0.624575 -0.736870 -0.258707
vn 0.624575 -0.736870 -0.258707
vn 0.624575 -0.736870 -0.258707
vn 0.382683 0.000000 -0.923880
vn 0.382683 0.000000 -0.923880
vn 0.361298 0.329604 -0.872253
vn 0.361298 0.329604 -0.872253
vn -0.382683 0.000000 -0.923880
vn -0.382683 0.000000 -0.923880
vn -0.361298 0.329604 -0.872253
vn -0.361298 0.329604 -0.872253
vn -0.923881 0.000000 -0.382681
vn -0.923881 0.000000 -0.382681
vn -0.872253 0.329606 -0.361296
vn -0.872253 0.329606 -0.361296
vn -0.923881 -0.000000 0.382681
vn -0.923881 -0.000000 0.382681
vn -0.872253 0.329606 0.361296
vn -0.872253 0.329606 0.361296
vn -0.382683 0.000000 0.923880
vn -0.382683 0.000000 0.923880
vn -0.361298 0.329604 0.872253
vn -0.361298 0.329604 0.872253
vn 0.382683 0.000000 0.923880
vn 0.382683 0.000000 0.923880
vn 0.361298 0.329604 0.872253
vn 0.361298 0.329604 0.872253
vn 0.923881 -0.000000 0.382681
vn 0.923881 -0.000000 0.382681
vn 0.872253 0.329606 0.361296
vn 0.872253 0.329605 0.361296
vn 0.923881 0.000000 -0.382681
vn 0.923881 0.000000 -0.382681
vn 0.872253 0.329606 -0.361296
vn 0.872253 0.329606 -0.361296
vn 0.263220 0.725875 -0.635469
vn 0.263220 0.725875 -0.635469
vn -0.263219 0.725875 -0.635469
vn -0.263219 0.725875 -0.635469
vn -0.635468 0.725877 -0.263217
vn -0.635468 0.725877 -0.263217
vn -0.635468 0.725877 0.263217
vn -0.635468 0.725877 0.263217
vn -0.263220 0.725875 0.635469
vn -0.263220 0.725875 0.635469
vn 0.263220 0.725875 0.635469
vn 0.263220 0.725875 0.635469
vn 0.635468 0.725877 0.263217
vn 0.635468 0.725877 0.263217
vn 0.635468 0.725877 -0.263217
vn 0.635468 0.725877 -0.263217
vn 0.000000 1.000000 -0.000000
vn 0.000000 1.000000 -0.000000
vn 0.000000 1.000000 -0.000000
vn 0.000000 1.000000 -0.000000
vn 0.000000 1.000000 0.000000
vn 0.000000 1.000000 0.000000
vn 0.000000 1.000000 0.000000
vn 0.000000 1.000000 0.000000
vn 0.000000 1.000000 -0.000000
vn 0.000000 1.000000 -0.000000
vn 0.000000 1.000000 -0.000000
vn 0.000000 1.000000 -0.000000
vn 0.000000 1.000000 0.000000
vn 0.000000 1.000000 0.000000
vn 0.000000 1.000000 0.000000
vn 0.000000 1.000000 0.000000
vn 0.000000 1.000000 0.000000
vn 0.000000 1.000000 0.000000
vn 0.000000 1.000000 0.000000
vn 0.000000 1.000000 0.000000
vn 0.000000 1.000000 0.000000
vn 0.000000 1.000000 0.000000
vn 0.000000 1.000000 0.000000
vn 0.000000 1.000000 0.000000
vn 0.000000 1.000000 0.000000
vn 0.000000 1.000000 0.000000
vn 0.000000 1.000000 0.000000
vn 0.000000 1.000000 0.000000
vn 0.000000 1.000000 0.000000
vn 0.000000 1.000000 0.000000
vn 0.000000 1.000000 0.000000
vn 0.000000 1.000000 0.000000
vn -0.382685 0.000000 0.923879
vn -0.382685 0.000000 0.923879
vn -0.382685 0.000000 0.923879
vn -0.382685 0.000000 0.923879
vn 0.382685 0.000000 0.923879
vn 0.382685 0.000000 0.923879
vn 0.382685 0.000000 0.923879
vn 0.382685 0.000000 0.923879
vn 0.923879 0.000000 0.382685
vn 0.923879 0.000000 0.382685
vn 0.923879 0.000000 0.382685
vn 0.923879 0.000000 0.382685
vn 0.923879 0.000000 -0.382685
vn 0.923879 0.000000 -0.382685
vn 0.923879 0.000000 -0.382685
vn 0.923879 0.000000 -0.382685
vn 0.382685 0.000000 -0.923879
vn 0.382685 0.000000 -0.923879
vn 0.382685 0.000000 -0.923879
vn 0.382685 0.000000 -0.923879
vn -0.382685 0.000000 -0.923879
vn -0.382685 0.000000 -0.923879
vn -0.382685 0.000000 -0.923879
vn -0.382685 0.000000 -0.923879
vn -0.923879 0.000000 -0.382685
vn -0.923879 0.000000 -0.382685
vn -0.923879 0.000000 -0.382685
vn -0.923879 0.000000 -0.382685
vn -0.923879 0.000000 0.382685
vn -0.923879 0.000000 0.382685
vn -0.923879 0.000000 0.382685
vn -0.923879 0.000000 0.382685
vn 0.377610 -0.162283 -0.911633
vn 0.377610 -0.162283 -0.911633
vn 0.377610 -0.162283 -0.911633
vn 0.377610 -0.162283 -0.911633
vn -0.377610 -0.162283 -0.911633
vn -0.377610 -0.162283 -0.911633
vn -0.377610 -0.162283 -0.911633
vn -0.377610 -0.162283 -0.911633
vn -0.911634 -0.162283 -0.377607
vn -0.911634 -0.162283 -0.377607
vn -0.911634 -0.162283 -0.377607
vn -0.911634 -0.162283 -0.377607
vn -0.911634 -0.162282 0.377607
vn -0.911634 -0.162282 0.377607
vn -0.911634 -0.162282 0.377607
vn -0.911634 -0.162282 0.377607
vn -0.377610 -0.162283 0.911633
vn -0.377610 -0.162283 0.911633
vn -0.377610 -0.162283 0.911633
vn -0.377610 -0.162283 0.911633
vn 0.377610 -0.162283 0.911633
vn 0.377610 -0.162283 0.911633
vn 0.377610 -0.162283 0.911633
vn 0.377610 -0.162283 0.911633
vn 0.911634 -0.162282 0.377607
vn 0.911634 -0.162282 0.377607
vn 0.911634 -0.162282 0.377607
vn 0.911634 -0.162282 0.377607
vn 0.911634 -0.162282 -0.377607
vn 0.911634 -0.162282 -0.377607
vn 0.911634 -0.162282 -0.377607
vn 0.911634 -0.162282 -0.377607
s off
g pCylinder5
usemtl initialShadingGroup
f 1/9/1 2/10/2 10/19/3 9/18/4
f 2/10/5 3/11/6 11/20/7 10/19/8
f 3/11/9 4/12/10 12/21/11 11/20/12
f 4/12/13 5/13/14 13/22/15 12/21/16
f 5/13/17 6/14/18 14/23/19 13/22/20
f 6/14/21 7/15/22 15/24/23 14/23/24
f 7/15/25 8/16/26 16/25/27 15/24/28
f 8/16/29 1/17/30 9/26/31 16/25/32
s 1
f 2/2/33 1/1/34 17/35/35
f 3/3/36 2/2/33 17/35/35
f 4/4/37 3/3/36 17/35/35
f 5/5/38 4/4/37 17/35/35
f 6/6/39 5/5/38 17/35/35
f 7/7/40 6/6/39 17/35/35
f 8/8/41 7/7/40 17/35/35
f 1/1/34 8/8/41 17/35/35
s 2
f 90/109/42 91/110/43 92/36/44
f 91/110/43 93/111/45 92/36/44
f 93/111/45 94/112/46 92/36/44
f 94/112/46 95/113/47 92/36/44
f 95/113/47 96/114/48 92/36/44
f 96/114/48 97/115/49 92/36/44
f 97/115/49 98/116/50 92/36/44
f 98/116/50 90/109/42 92/36/44
s 3
f 9/33/51 10/32/52 33/52/53 26/45/54
s 4
f 10/32/55 11/31/56 32/51/57 33/52/58
s 5
f 11/31/59 12/30/60 31/50/61 32/51/62
s 6
f 12/30/63 13/29/64 30/49/65 31/50/66
s 7
f 13/29/67 14/28/68 29/48/69 30/49/70
s 8
f 14/28/71 15/27/72 28/47/73 29/48/74
s 9
f 15/27/75 16/34/76 27/46/77 28/47/78
s 10
f 16/34/79 9/33/80 26/45/81 27/46/82
f 27/46/82 26/45/81 34/53/83 35/54/84
s 9
f 28/47/78 27/46/77 35/54/85 36/55/86
s 8
f 29/48/74 28/47/73 36/55/87 37/56/88
s 7
f 30/49/70 29/48/69 37/56/89 38/57/90
s 6
f 31/50/66 30/49/65 38/57/91 39/58/92
s 5
f 32/51/62 31/50/61 39/58/93 40/59/94
s 4
f 33/52/58 32/51/57 40/59/95 41/60/96
s 3
f 26/45/54 33/52/53 41/60/97 34/53/98
s 10
f 35/54/84 34/53/83 18/37/99 25/44/100
s 9
f 36/55/86 35/54/85 25/44/101 24/43/102
s 8
f 37/56/88 36/55/87 24/43/103 23/42/104
s 7
f 38/57/90 37/56/89 23/42/105 22/41/106
s 6
f 39/58/92 38/57/91 22/41/107 21/40/108
s 5
f 40/59/94 39/58/93 21/40/109 20/39/110
s 4
f 41/60/96 40/59/95 20/39/111 19/38/112
s 3
f 34/53/98 41/60/97 19/38/113 18/37/114
s off
f 18/37/115 19/38/116 43/62/117 42/61/118
f 19/38/119 20/39/120 44/63/121 43/62/122
f 20/39/123 21/40/124 45/64/125 44/63/126
f 21/40/127 22/41/128 46/65/129 45/64/130
f 22/41/131 23/42/132 47/66/133 46/65/134
f 23/42/135 24/43/136 48/67/137 47/66/138
f 24/43/139 25/44/140 49/68/141 48/67/142
f 25/44/143 18/37/144 42/61/145 49/68/146
s 11
f 42/61/147 43/62/148 51/70/149 50/69/150
s 12
f 43/62/151 44/63/152 52/71/153 51/70/154
s 13
f 44/63/155 45/64/156 53/72/157 52/71/158
s 14
f 45/64/159 46/65/160 54/73/161 53/72/162
s 15
f 46/65/163 47/66/164 55/74/165 54/73/166
s 16
f 47/66/167 48/67/168 56/75/169 55/74/170
s 17
f 48/67/171 49/68/172 57/76/173 56/75/174
s 18
f 49/68/175 42/61/176 50/69/177 57/76/178
s 11
f 50/69/150 51/70/149 59/78/179 58/77/180
s 12
f 51/70/154 52/71/153 60/79/181 59/78/182
s 13
f 52/71/158 53/72/157 61/80/183 60/79/184
s 14
f 53/72/162 54/73/161 62/81/185 61/80/186
s 15
f 54/73/166 55/74/165 63/82/187 62/81/188
s 16
f 55/74/170 56/75/169 64/83/189 63/82/190
s 17
f 56/75/174 57/76/173 65/84/191 64/83/192
s 18
f 57/76/178 50/69/177 58/77/193 65/84/194
s off
f 58/77/195 59/78/196 67/86/197 66/85/198
f 59/78/199 60/79/200 68/87/201 67/86/202
f 60/79/203 61/80/204 69/88/205 68/87/206
f 61/80/207 62/81/208 70/89/209 69/88/210
f 62/81/211 63/82/212 71/90/213 70/89/214
f 63/82/215 64/83/216 72/91/217 71/90/218
f 64/83/219 65/84/220 73/92/221 72/91/222
f 65/84/223 58/77/224 66/85/225 73/92/226
f 66/85/227 67/86/228 75/94/229 74/93/230
f 67/86/231 68/87/232 76/95/233 75/94/234
f 68/87/235 69/88/236 77/96/237 76/95/238
f 69/88/239 70/89/240 78/97/241 77/96/242
f 70/89/243 71/90/244 79/98/245 78/97/246
f 71/90/247 72/91/248 80/99/249 79/98/250
f 72/91/251 73/92/252 81/100/253 80/99/254
f 73/92/255 66/85/256 74/93/257 81/100/258
f 82/101/259 83/102/260 91/110/261 90/109/262
f 83/102/263 84/103/264 93/111/265 91/110/266
f 84/103/267 85/104/268 94/112/269 93/111/270
f 85/104/271 86/105/272 95/113/273 94/112/274
f 86/105/275 87/106/276 96/114/277 95/113/278
f 87/106/279 88/107/280 97/115/281 96/114/282
f 88/107/283 89/108/284 98/116/285 97/115/286
f 89/108/287 82/101/288 90/109/289 98/116/290
