# This file uses centimeters as units for non-parametric coordinates.

mtllib Pot1.mtl
g default
v 2.912734 0.000000 -0.099137
v 2.813598 0.000000 -0.140201
v 2.714461 0.000000 -0.099137
v 2.673397 0.000000 0.000000
v 2.714461 0.000000 0.099137
v 2.813598 0.000000 0.140201
v 2.912735 0.000000 0.099137
v 2.953798 0.000000 0.000000
v 2.872601 0.068683 -0.059003
v 2.813598 0.068683 -0.083443
v 2.754594 0.068683 -0.059003
v 2.730154 0.068683 0.000000
v 2.754594 0.068683 0.059003
v 2.813598 0.068683 0.083443
v 2.872601 0.068683 0.059003
v 2.897041 0.068683 0.000000
v 2.813598 0.000000 0.000000
v 2.903683 0.671738 -0.090085
v 2.813598 0.671738 -0.127400
v 2.723512 0.671738 -0.090085
v 2.686198 0.671738 0.000000
v 2.723512 0.671738 0.090085
v 2.813598 0.671738 0.127400
v 2.903683 0.671738 0.090085
v 2.940997 0.671738 0.000000
v 2.989426 0.487534 -0.175829
v 3.062257 0.487534 0.000000
v 2.989426 0.487534 0.175829
v 2.813598 0.487534 0.248660
v 2.637768 0.487534 0.175829
v 2.564938 0.487534 0.000000
v 2.637768 0.487534 -0.175829
v 2.813598 0.487534 -0.248660
v 2.969201 0.556953 -0.155604
v 3.033654 0.556953 0.000000
v 2.969201 0.556953 0.155604
v 2.813598 0.556953 0.220057
v 2.657993 0.556953 0.155604
v 2.593541 0.556953 0.000000
v 2.657993 0.556953 -0.155604
v 2.813598 0.556953 -0.220057
v 2.959183 0.249391 -0.145586
v 3.019486 0.249391 0.000000
v 2.959183 0.249391 0.145586
v 2.813598 0.249391 0.205889
v 2.668012 0.249391 0.145586
v 2.607709 0.249391 0.000000
v 2.668012 0.249391 -0.145586
v 2.813598 0.249391 -0.205889
v 2.932649 0.878283 -0.119052
v 2.813598 0.878283 -0.168365
v 2.694545 0.878283 -0.119052
v 2.645233 0.878283 0.000000
v 2.694545 0.878283 0.119052
v 2.813598 0.878283 0.168365
v 2.932649 0.878283 0.119052
v 2.981962 0.878283 0.000000
v 2.909132 0.783932 -0.095535
v 2.948704 0.783932 0.000000
v 2.909132 0.783932 0.095535
v 2.813598 0.783932 0.135106
v 2.718062 0.783932 0.095535
v 2.678491 0.783932 0.000000
v 2.718062 0.783932 -0.095535
v 2.813598 0.783932 -0.135106
v 2.947622 0.901462 -0.134025
v 2.813598 0.901462 -0.189540
v 2.679572 0.901462 -0.134025
v 2.624058 0.901462 0.000000
v 2.679572 0.901462 0.134025
v 2.813598 0.901462 0.189540
v 2.947622 0.901462 0.134025
v 3.003137 0.901462 0.000000
v 2.947622 0.930084 -0.134025
v 2.813598 0.930084 -0.189540
v 2.679572 0.930084 -0.134025
v 2.624058 0.930084 0.000000
v 2.679572 0.930084 0.134025
v 2.813598 0.930084 0.189540
v 2.947622 0.930084 0.134025
v 3.003137 0.930084 0.000000
v 2.923376 0.930084 -0.109779
v 2.813598 0.930084 -0.155251
v 2.703818 0.930084 -0.109779
v 2.658347 0.930084 0.000000
v 2.703818 0.930084 0.109779
v 2.813598 0.930084 0.155251
v 2.923376 0.930084 0.109779
v 2.968848 0.930084 0.000000
v 2.870768 0.723292 -0.057171
v 2.813598 0.723292 -0.080851
v 2.813598 0.723292 0.000000
v 2.756427 0.723292 -0.057171
v 2.732746 0.723292 0.000000
v 2.756427 0.723292 0.057171
v 2.813598 0.723292 0.080851
v 2.870768 0.723292 0.057171
v 2.894449 0.723292 0.000000
vt 0.610485 0.045765
vt 0.500000 0.000000
vt 0.389515 0.045765
vt 0.343750 0.156250
vt 0.389515 0.266735
vt 0.500000 0.312500
vt 0.610485 0.266735
vt 0.656250 0.156250
vt 0.375000 0.312500
vt 0.406250 0.312500
vt 0.437500 0.312500
vt 0.468750 0.312500
vt 0.500000 0.312500
vt 0.531250 0.312500
vt 0.562500 0.312500
vt 0.593750 0.312500
vt 0.625000 0.312500
vt 0.375000 0.687500
vt 0.406250 0.687500
vt 0.437500 0.687500
vt 0.468750 0.687500
vt 0.500000 0.687500
vt 0.531250 0.687500
vt 0.562500 0.687500
vt 0.593750 0.687500
vt 0.625000 0.687500
vt 0.610485 0.733265
vt 0.500000 0.687500
vt 0.389515 0.733265
vt 0.343750 0.843750
vt 0.389515 0.954235
vt 0.500000 1.000000
vt 0.610485 0.954235
vt 0.656250 0.843750
vt 0.500000 0.156250
vt 0.500000 0.843750
vt 0.610485 0.954235
vt 0.500000 1.000000
vt 0.389515 0.954235
vt 0.343750 0.843750
vt 0.389515 0.733265
vt 0.500000 0.687500
vt 0.610485 0.733265
vt 0.656250 0.843750
vt 0.610485 0.954235
vt 0.656250 0.843750
vt 0.610485 0.733265
vt 0.500000 0.687500
vt 0.389515 0.733265
vt 0.343750 0.843750
vt 0.389515 0.954235
vt 0.500000 1.000000
vt 0.610485 0.954235
vt 0.656250 0.843750
vt 0.610485 0.733265
vt 0.500000 0.687500
vt 0.389515 0.733265
vt 0.343750 0.843750
vt 0.389515 0.954235
vt 0.500000 1.000000
vt 0.610485 0.954235
vt 0.656250 0.843750
vt 0.610485 0.733265
vt 0.500000 0.687500
vt 0.389515 0.733265
vt 0.343750 0.843750
vt 0.389515 0.954235
vt 0.500000 1.000000
vt 0.610485 0.954235
vt 0.500000 1.000000
vt 0.389515 0.954235
vt 0.343750 0.843750
vt 0.389515 0.733265
vt 0.500000 0.687500
vt 0.610485 0.733265
vt 0.656250 0.843750
vt 0.610485 0.954235
vt 0.656250 0.843750
vt 0.610485 0.733265
vt 0.500000 0.687500
vt 0.389515 0.733265
vt 0.343750 0.843750
vt 0.389515 0.954235
vt 0.500000 1.000000
vt 0.610485 0.954235
vt 0.500000 1.000000
vt 0.389515 0.954235
vt 0.343750 0.843750
vt 0.389515 0.733265
vt 0.500000 0.687500
vt 0.610485 0.733265
vt 0.656250 0.843750
vt 0.610485 0.954235
vt 0.500000 1.000000
vt 0.389515 0.954235
vt 0.343750 0.843750
vt 0.389515 0.733265
vt 0.500000 0.687500
vt 0.610485 0.733265
vt 0.656250 0.843750
vt 0.610485 0.954235
vt 0.500000 1.000000
vt 0.389515 0.954235
vt 0.343750 0.843750
vt 0.389515 0.733265
vt 0.500000 0.687500
vt 0.610485 0.733265
vt 0.656250 0.843750
vt 0.610485 0.954235
vt 0.500000 1.000000
vt 0.389515 0.954235
vt 0.343750 0.843750
vt 0.389515 0.733265
vt 0.500000 0.687500
vt 0.610485 0.733265
vt 0.656250 0.843750
vn 0.304171 0.606826 -0.734331
vn 0.304171 0.606826 -0.734331
vn 0.304171 0.606826 -0.734331
vn 0.304171 0.606826 -0.734331
vn -0.304170 0.606825 -0.734332
vn -0.304170 0.606825 -0.734332
vn -0.304170 0.606825 -0.734332
vn -0.304170 0.606825 -0.734332
vn -0.734332 0.606825 -0.304170
vn -0.734332 0.606825 -0.304170
vn -0.734332 0.606825 -0.304170
vn -0.734332 0.606825 -0.304170
vn -0.734332 0.606825 0.304170
vn -0.734332 0.606825 0.304170
vn -0.734332 0.606825 0.304170
vn -0.734332 0.606825 0.304170
vn -0.304170 0.606825 0.734332
vn -0.304170 0.606825 0.734332
vn -0.304170 0.606825 0.734332
vn -0.304170 0.606825 0.734332
vn 0.304170 0.606826 0.734331
vn 0.304170 0.606826 0.734331
vn 0.304170 0.606826 0.734331
vn 0.304170 0.606826 0.734331
vn 0.734331 0.606827 0.304170
vn 0.734331 0.606827 0.304170
vn 0.734331 0.606827 0.304170
vn 0.734331 0.606827 0.304170
vn 0.734331 0.606826 -0.304171
vn 0.734331 0.606826 -0.304171
vn 0.734331 0.606826 -0.304171
vn 0.734331 0.606826 -0.304171
vn 0.000000 -1.000000 0.000000
vn 0.000000 -1.000000 0.000000
vn 0.000000 -1.000000 0.000000
vn 0.000000 -1.000000 0.000000
vn 0.000000 -1.000000 0.000000
vn 0.000000 -1.000000 0.000000
vn 0.000000 -1.000000 0.000000
vn 0.000000 -1.000000 0.000000
vn 0.000000 -1.000000 0.000000
vn 0.000000 1.000000 0.000001
vn 0.000000 1.000000 0.000000
vn 0.000000 1.000000 0.000000
vn 0.000000 1.000000 -0.000001
vn 0.000000 1.000000 0.000001
vn 0.000000 1.000000 0.000001
vn 0.000000 1.000000 0.000000
vn 0.000000 1.000000 -0.000001
vn 0.000000 1.000000 -0.000000
vn 0.324368 -0.530614 -0.783093
vn 0.324368 -0.530614 -0.783093
vn 0.366825 -0.284894 -0.885593
vn 0.366825 -0.284894 -0.885593
vn -0.324366 -0.530614 -0.783093
vn -0.324366 -0.530614 -0.783093
vn -0.366823 -0.284894 -0.885594
vn -0.366823 -0.284895 -0.885593
vn -0.783094 -0.530614 -0.324364
vn -0.783094 -0.530614 -0.324364
vn -0.885594 -0.284896 -0.366820
vn -0.885594 -0.284895 -0.366820
vn -0.783094 -0.530615 0.324364
vn -0.783094 -0.530615 0.324364
vn -0.885594 -0.284895 0.366820
vn -0.885594 -0.284896 0.366820
vn -0.324366 -0.530614 0.783093
vn -0.324366 -0.530614 0.783093
vn -0.366823 -0.284895 0.885593
vn -0.366823 -0.284894 0.885594
vn 0.324367 -0.530614 0.783093
vn 0.324367 -0.530614 0.783093
vn 0.366825 -0.284894 0.885593
vn 0.366825 -0.284894 0.885593
vn 0.783093 -0.530614 0.324368
vn 0.783093 -0.530614 0.324368
vn 0.885593 -0.284894 0.366825
vn 0.885593 -0.284894 0.366825
vn 0.783093 -0.530614 -0.324368
vn 0.783093 -0.530614 -0.324368
vn 0.885593 -0.284894 -0.366825
vn 0.885593 -0.284894 -0.366825
vn 0.922956 -0.044699 -0.382302
vn 0.922956 -0.044699 -0.382302
vn 0.806656 0.487508 -0.334129
vn 0.806656 0.487507 -0.334129
vn 0.922956 -0.044699 0.382302
vn 0.922956 -0.044699 0.382302
vn 0.806656 0.487508 0.334129
vn 0.806656 0.487508 0.334129
vn 0.382302 -0.044699 0.922956
vn 0.382302 -0.044699 0.922956
vn 0.334129 0.487508 0.806656
vn 0.334129 0.487508 0.806656
vn -0.382299 -0.044700 0.922957
vn -0.382299 -0.044699 0.922957
vn -0.334127 0.487509 0.806656
vn -0.334127 0.487509 0.806656
vn -0.922958 -0.044699 0.382297
vn -0.922958 -0.044699 0.382297
vn -0.806656 0.487510 0.334124
vn -0.806656 0.487510 0.334124
vn -0.922958 -0.044699 -0.382297
vn -0.922958 -0.044699 -0.382297
vn -0.806656 0.487511 -0.334124
vn -0.806656 0.487510 -0.334124
vn -0.382299 -0.044699 -0.922957
vn -0.382299 -0.044700 -0.922957
vn -0.334127 0.487509 -0.806656
vn -0.334127 0.487509 -0.806656
vn 0.382302 -0.044699 -0.922956
vn 0.382302 -0.044699 -0.922956
vn 0.334129 0.487508 -0.806656
vn 0.334129 0.487508 -0.806656
vn 0.740602 0.597831 -0.306768
vn 0.740602 0.597831 -0.306768
vn 0.740602 0.597831 0.306768
vn 0.740602 0.597831 0.306768
vn 0.306768 0.597831 0.740602
vn 0.306768 0.597831 0.740602
vn -0.306767 0.597831 0.740602
vn -0.306767 0.597831 0.740602
vn -0.740603 0.597831 0.306765
vn -0.740603 0.597831 0.306765
vn -0.740603 0.597831 -0.306765
vn -0.740603 0.597831 -0.306765
vn -0.306767 0.597831 -0.740602
vn -0.306767 0.597831 -0.740602
vn 0.306768 0.597831 -0.740602
vn 0.306768 0.597831 -0.740602
vn 0.381916 -0.063333 -0.922025
vn 0.381916 -0.063333 -0.922024
vn 0.375329 -0.195112 -0.906123
vn 0.375329 -0.195112 -0.906123
vn -0.381914 -0.063334 -0.922026
vn -0.381914 -0.063334 -0.922025
vn -0.375327 -0.195113 -0.906124
vn -0.375327 -0.195112 -0.906124
vn -0.922027 -0.063334 -0.381910
vn -0.922027 -0.063334 -0.381910
vn -0.906125 -0.195113 -0.375324
vn -0.906125 -0.195113 -0.375324
vn -0.922027 -0.063334 0.381910
vn -0.922027 -0.063334 0.381910
vn -0.906125 -0.195113 0.375324
vn -0.906125 -0.195113 0.375324
vn -0.381914 -0.063334 0.922025
vn -0.381914 -0.063334 0.922026
vn -0.375327 -0.195112 0.906124
vn -0.375327 -0.195113 0.906124
vn 0.381916 -0.063333 0.922024
vn 0.381916 -0.063333 0.922025
vn 0.375329 -0.195112 0.906123
vn 0.375329 -0.195112 0.906123
vn 0.922025 -0.063333 0.381916
vn 0.922025 -0.063333 0.381916
vn 0.906123 -0.195111 0.375329
vn 0.906123 -0.195112 0.375329
vn 0.922025 -0.063333 -0.381916
vn 0.922025 -0.063333 -0.381916
vn 0.906123 -0.195111 -0.375329
vn 0.906123 -0.195111 -0.375329
vn 0.878469 -0.309659 -0.363874
vn 0.878469 -0.309659 -0.363874
vn 0.878469 -0.309659 0.363873
vn 0.878469 -0.309659 0.363873
vn 0.363874 -0.309660 0.878468
vn 0.363874 -0.309660 0.878468
vn -0.363872 -0.309660 0.878469
vn -0.363872 -0.309660 0.878469
vn -0.878470 -0.309661 0.363870
vn -0.878470 -0.309661 0.363870
vn -0.878470 -0.309661 -0.363870
vn -0.878470 -0.309661 -0.363870
vn -0.363872 -0.309660 -0.878469
vn -0.363872 -0.309660 -0.878469
vn 0.363874 -0.309660 -0.878468
vn 0.363874 -0.309660 -0.878468
vn 0.292447 -0.644983 -0.706025
vn 0.292447 -0.644983 -0.706025
vn 0.292447 -0.644983 -0.706025
vn 0.292447 -0.644983 -0.706025
vn -0.292445 -0.644983 -0.706026
vn -0.292445 -0.644983 -0.706026
vn -0.292445 -0.644983 -0.706026
vn -0.292445 -0.644983 -0.706026
vn -0.706028 -0.644981 -0.292444
vn -0.706028 -0.644981 -0.292444
vn -0.706028 -0.644981 -0.292444
vn -0.706028 -0.644981 -0.292444
vn -0.706029 -0.644981 0.292444
vn -0.706028 -0.644981 0.292444
vn -0.706028 -0.644981 0.292444
vn -0.706028 -0.644981 0.292444
vn -0.292445 -0.644983 0.706026
vn -0.292445 -0.644983 0.706026
vn -0.292445 -0.644983 0.706026
vn -0.292445 -0.644983 0.706026
vn 0.292447 -0.644983 0.706025
vn 0.292447 -0.644983 0.706025
vn 0.292447 -0.644983 0.706025
vn 0.292447 -0.644983 0.706025
vn 0.706029 -0.644979 0.292447
vn 0.706029 -0.644979 0.292447
vn 0.706029 -0.644979 0.292447
vn 0.706029 -0.644979 0.292447
vn 0.706029 -0.644979 -0.292447
vn 0.706029 -0.644979 -0.292447
vn 0.706029 -0.644979 -0.292447
vn 0.706029 -0.644979 -0.292447
vn 0.382685 0.000000 -0.923879
vn 0.382685 0.000000 -0.923879
vn 0.382685 0.000000 -0.923879
vn 0.382685 0.000000 -0.923879
vn -0.382682 0.000000 -0.923880
vn -0.382682 0.000000 -0.923880
vn -0.382682 0.000000 -0.923880
vn -0.382682 0.000000 -0.923880
vn -0.923881 0.000000 -0.382681
vn -0.923881 0.000000 -0.382681
vn -0.923881 0.000000 -0.382681
vn -0.923881 0.000000 -0.382681
vn -0.923881 0.000000 0.382681
vn -0.923881 0.000000 0.382681
vn -0.923881 0.000000 0.382681
vn -0.923881 0.000000 0.382681
vn -0.382682 0.000000 0.923880
vn -0.382682 0.000000 0.923880
vn -0.382682 0.000000 0.923880
vn -0.382682 0.000000 0.923880
vn 0.382684 0.000000 0.923879
vn 0.382684 0.000000 0.923879
vn 0.382684 0.000000 0.923879
vn 0.382684 0.000000 0.923879
vn 0.923880 0.000000 0.382684
vn 0.923880 0.000000 0.382684
vn 0.923880 0.000000 0.382684
vn 0.923880 0.000000 0.382684
vn 0.923879 0.000000 -0.382684
vn 0.923879 0.000000 -0.382684
vn 0.923879 0.000000 -0.382684
vn 0.923879 0.000000 -0.382684
vn 0.000000 1.000000 -0.000001
vn 0.000000 1.000000 -0.000001
vn 0.000000 1.000000 -0.000001
vn 0.000000 1.000000 -0.000001
vn 0.000000 1.000000 -0.000000
vn 0.000000 1.000000 -0.000000
vn 0.000000 1.000000 -0.000000
vn 0.000000 1.000000 -0.000000
vn 0.000000 1.000000 0.000000
vn 0.000000 1.000000 0.000000
vn 0.000000 1.000000 0.000000
vn 0.000000 1.000000 0.000000
vn 0.000000 1.000000 0.000000
vn 0.000000 1.000000 0.000000
vn 0.000000 1.000000 0.000000
vn 0.000000 1.000000 0.000000
vn 0.000000 1.000000 -0.000001
vn 0.000000 1.000000 -0.000001
vn 0.000000 1.000000 -0.000001
vn 0.000000 1.000000 -0.000001
vn 0.000000 1.000000 -0.000000
vn 0.000000 1.000000 -0.000000
vn 0.000000 1.000000 -0.000000
vn 0.000000 1.000000 -0.000000
vn 0.000000 1.000000 0.000000
vn 0.000000 1.000000 0.000000
vn 0.000000 1.000000 0.000000
vn 0.000000 1.000000 0.000000
vn 0.000000 1.000000 0.000001
vn 0.000000 1.000000 0.000001
vn 0.000000 1.000000 0.000001
vn 0.000000 1.000000 0.000001
vn -0.363150 0.315423 0.876716
vn -0.363150 0.315423 0.876716
vn -0.363150 0.315423 0.876716
vn -0.363150 0.315423 0.876716
vn 0.363146 0.315423 0.876717
vn 0.363146 0.315423 0.876717
vn 0.363146 0.315423 0.876717
vn 0.363146 0.315423 0.876717
vn 0.876718 0.315423 0.363145
vn 0.876718 0.315423 0.363145
vn 0.876718 0.315423 0.363145
vn 0.876718 0.315423 0.363145
vn 0.876718 0.315423 -0.363145
vn 0.876718 0.315423 -0.363145
vn 0.876718 0.315423 -0.363145
vn 0.876718 0.315423 -0.363145
vn 0.363146 0.315423 -0.876717
vn 0.363146 0.315423 -0.876717
vn 0.363146 0.315423 -0.876717
vn 0.363146 0.315423 -0.876717
vn -0.363150 0.315423 -0.876716
vn -0.363150 0.315423 -0.876716
vn -0.363150 0.315423 -0.876716
vn -0.363150 0.315423 -0.876716
vn -0.876716 0.315423 -0.363149
vn -0.876716 0.315423 -0.363149
vn -0.876716 0.315423 -0.363149
vn -0.876716 0.315423 -0.363149
vn -0.876716 0.315423 0.363149
vn -0.876716 0.315423 0.363149
vn -0.876716 0.315423 0.363149
vn -0.876716 0.315423 0.363149
s off
g pCylinder4
usemtl initialShadingGroup
f 1/9/1 2/10/2 10/19/3 9/18/4
f 2/10/5 3/11/6 11/20/7 10/19/8
f 3/11/9 4/12/10 12/21/11 11/20/12
f 4/12/13 5/13/14 13/22/15 12/21/16
f 5/13/17 6/14/18 14/23/19 13/22/20
f 6/14/21 7/15/22 15/24/23 14/23/24
f 7/15/25 8/16/26 16/25/27 15/24/28
f 8/16/29 1/17/30 9/26/31 16/25/32
s 1
f 2/2/33 1/1/34 17/35/35
f 3/3/36 2/2/33 17/35/35
f 4/4/37 3/3/36 17/35/35
f 5/5/38 4/4/37 17/35/35
f 6/6/39 5/5/38 17/35/35
f 7/7/40 6/6/39 17/35/35
f 8/8/41 7/7/40 17/35/35
f 1/1/34 8/8/41 17/35/35
s 2
f 90/109/42 91/110/43 92/36/44
f 91/110/43 93/111/45 92/36/44
f 93/111/45 94/112/46 92/36/44
f 94/112/46 95/113/47 92/36/44
f 95/113/47 96/114/48 92/36/44
f 96/114/48 97/115/49 92/36/44
f 97/115/49 98/116/50 92/36/44
f 98/116/50 90/109/42 92/36/44
s 3
f 9/33/51 10/32/52 49/68/53 42/61/54
s 4
f 10/32/55 11/31/56 48/67/57 49/68/58
s 5
f 11/31/59 12/30/60 47/66/61 48/67/62
s 6
f 12/30/63 13/29/64 46/65/65 47/66/66
s 7
f 13/29/67 14/28/68 45/64/69 46/65/70
s 8
f 14/28/71 15/27/72 44/63/73 45/64/74
s 9
f 15/27/75 16/34/76 43/62/77 44/63/78
s 10
f 16/34/79 9/33/80 42/61/81 43/62/82
f 27/46/83 26/45/84 34/53/85 35/54/86
s 9
f 28/47/87 27/46/88 35/54/89 36/55/90
s 8
f 29/48/91 28/47/92 36/55/93 37/56/94
s 7
f 30/49/95 29/48/96 37/56/97 38/57/98
s 6
f 31/50/99 30/49/100 38/57/101 39/58/102
s 5
f 32/51/103 31/50/104 39/58/105 40/59/106
s 4
f 33/52/107 32/51/108 40/59/109 41/60/110
s 3
f 26/45/111 33/52/112 41/60/113 34/53/114
s 10
f 35/54/86 34/53/85 18/37/115 25/44/116
s 9
f 36/55/90 35/54/89 25/44/117 24/43/118
s 8
f 37/56/94 36/55/93 24/43/119 23/42/120
s 7
f 38/57/98 37/56/97 23/42/121 22/41/122
s 6
f 39/58/102 38/57/101 22/41/123 21/40/124
s 5
f 40/59/106 39/58/105 21/40/125 20/39/126
s 4
f 41/60/110 40/59/109 20/39/127 19/38/128
s 3
f 34/53/114 41/60/113 19/38/129 18/37/130
s 10
f 43/62/82 42/61/81 26/45/84 27/46/83
s 9
f 44/63/78 43/62/77 27/46/88 28/47/87
s 8
f 45/64/74 44/63/73 28/47/92 29/48/91
s 7
f 46/65/70 45/64/69 29/48/96 30/49/95
s 6
f 47/66/66 46/65/65 30/49/100 31/50/99
s 5
f 48/67/62 47/66/61 31/50/104 32/51/103
s 4
f 49/68/58 48/67/57 32/51/108 33/52/107
s 3
f 42/61/54 49/68/53 33/52/112 26/45/111
s 11
f 18/37/131 19/38/132 65/84/133 58/77/134
s 12
f 19/38/135 20/39/136 64/83/137 65/84/138
s 13
f 20/39/139 21/40/140 63/82/141 64/83/142
s 14
f 21/40/143 22/41/144 62/81/145 63/82/146
s 15
f 22/41/147 23/42/148 61/80/149 62/81/150
s 16
f 23/42/151 24/43/152 60/79/153 61/80/154
s 17
f 24/43/155 25/44/156 59/78/157 60/79/158
s 18
f 25/44/159 18/37/160 58/77/161 59/78/162
f 59/78/162 58/77/161 50/69/163 57/76/164
s 17
f 60/79/158 59/78/157 57/76/165 56/75/166
s 16
f 61/80/154 60/79/153 56/75/167 55/74/168
s 15
f 62/81/150 61/80/149 55/74/169 54/73/170
s 14
f 63/82/146 62/81/145 54/73/171 53/72/172
s 13
f 64/83/142 63/82/141 53/72/173 52/71/174
s 12
f 65/84/138 64/83/137 52/71/175 51/70/176
s 11
f 58/77/134 65/84/133 51/70/177 50/69/178
s off
f 50/69/179 51/70/180 67/86/181 66/85/182
f 51/70/183 52/71/184 68/87/185 67/86/186
f 52/71/187 53/72/188 69/88/189 68/87/190
f 53/72/191 54/73/192 70/89/193 69/88/194
f 54/73/195 55/74/196 71/90/197 70/89/198
f 55/74/199 56/75/200 72/91/201 71/90/202
f 56/75/203 57/76/204 73/92/205 72/91/206
f 57/76/207 50/69/208 66/85/209 73/92/210
f 66/85/211 67/86/212 75/94/213 74/93/214
f 67/86/215 68/87/216 76/95/217 75/94/218
f 68/87/219 69/88/220 77/96/221 76/95/222
f 69/88/223 70/89/224 78/97/225 77/96/226
f 70/89/227 71/90/228 79/98/229 78/97/230
f 71/90/231 72/91/232 80/99/233 79/98/234
f 72/91/235 73/92/236 81/100/237 80/99/238
f 73/92/239 66/85/240 74/93/241 81/100/242
f 74/93/243 75/94/244 83/102/245 82/101/246
f 75/94/247 76/95/248 84/103/249 83/102/250
f 76/95/251 77/96/252 85/104/253 84/103/254
f 77/96/255 78/97/256 86/105/257 85/104/258
f 78/97/259 79/98/260 87/106/261 86/105/262
f 79/98/263 80/99/264 88/107/265 87/106/266
f 80/99/267 81/100/268 89/108/269 88/107/270
f 81/100/271 74/93/272 82/101/273 89/108/274
f 82/101/275 83/102/276 91/110/277 90/109/278
f 83/102/279 84/103/280 93/111/281 91/110/282
f 84/103/283 85/104/284 94/112/285 93/111/286
f 85/104/287 86/105/288 95/113/289 94/112/290
f 86/105/291 87/106/292 96/114/293 95/113/294
f 87/106/295 88/107/296 97/115/297 96/114/298
f 88/107/299 89/108/300 98/116/301 97/115/302
f 89/108/303 82/101/304 90/109/305 98/116/306
